<svg xmlns="http://www.w3.org/2000/svg" viewBox="-14.2 24.8 98.4 98.3" enable-background="new -14.2 24.8 98.4 98.3"><style type="text/css">.st0{fill:#FFFFFF;}</style><path class="st0" d="M7.1 92.2v-36.4h18.099999999999998c2 0 4 .4 5.8 1.3 3.2 1.6 4.5 4.3 4.7 7.8 0 1.2-.1 2.3-.4 3.4-.6 1.7-1.7 2.9-3.2 3.9-.2.1-.4.3-.7.4.2.1.3.1.4.2 2.9 1.2 4.5 3.3 5 6.4.5 3.2-.1 6.2-2.2 8.8-1.7 2.1-3.9 3.4-6.6 3.7-1.4.2-2.8.4-4.2.4h-16.2c-.2.1-.4.1-.5.1zm8.3-6.3h7.7c.7 0 1.4-.1 2.1-.2 1.7-.3 3-1.1 3.6-2.8.4-1.1.4-2.1.2-3.3-.3-1.3-1-2.3-2.3-2.8-1-.4-2.1-.5-3.1-.6h-7.8c-.3 0-.4.1-.4.4v9.3zm.1-15.8h8c.9 0 1.9-.3 2.8-.5 1.2-.4 2-1.3 2.1-2.6.1-.6.1-1.2 0-1.8-.2-1.4-.9-2.4-2.4-2.6-1.1-.2-2.2-.4-3.3-.4-2.2-.1-4.5 0-6.7 0h-.5v7.9zM65.4 79.9h-18.9v.7c.5 4.9 4.2 6 7.2 5.7 1.9-.2 3.3-1 4.2-2.7.1-.1.3-.3.4-.3h6.7c-.1.8-.3 1.5-.7 2.1-1.6 3-4.1 5-7.4 5.8-4.7 1.2-9.1.6-13.1-2.4-1.9-1.4-3.1-3.2-3.7-5.5-.9-3.5-1-7 0-10.5 1.5-5 4.9-7.9 10.1-8.6 2.3-.3 4.6-.1 6.8.5 3.7 1.1 6.1 3.7 7.4 7.3.7 1.9.8 3.9.8 5.9.3.8.2 1.4.2 2zm-7.1-4.5c0-3.2-2.4-5.6-6-5.5-3.1.1-5.8 2.8-5.6 5.5h11.6zM59.8 60.9h-14.5v-3.3c0-.3.1-.4.4-.4h14.2c-.1 1.3-.1 2.5-.1 3.7zM35 123.2c-27.1 0-49.2-22.1-49.2-49.2s22.1-49.2 49.2-49.2 49.2 22.1 49.2 49.2-22.1 49.2-49.2 49.2zm0-91.4c-23.3 0-42.2 18.9-42.2 42.2 0 23.3 18.9 42.2 42.2 42.2s42.2-18.9 42.2-42.2c0-23.3-18.9-42.2-42.2-42.2z"/></svg>