<?xml version="1.0" encoding="utf-8"?>
<!-- Generator: Adobe Illustrator 19.1.0, SVG Export Plug-In . SVG Version: 6.00 Build 0)  -->
<svg version="1.1" id="Layer_1" xmlns="http://www.w3.org/2000/svg" xmlns:xlink="http://www.w3.org/1999/xlink" x="0px" y="0px"
	 viewBox="-798 462 160.5 100" style="enable-background:new -798 462 160.5 100;" xml:space="preserve">
<style type="text/css">
	.st0{fill:#FFFFFF;}
</style>
<g>
	<path class="st0" d="M-798,562c0-33.4,0-66.6,0-100c1.1,0,2.2,0,3.2,0c15.5,0,31.1,0,46.6,0.1c5.6,0,11,1.1,16,3.7
		c8.7,4.5,12.5,11.9,12.8,21.4c0.1,3.2-0.2,6.3-1.2,9.3c-1.6,4.7-4.6,8.1-8.8,10.6c-0.6,0.4-1.2,0.7-2,1.2c0.5,0.2,0.7,0.4,1,0.5
		c7.9,3.3,12.4,9.2,13.8,17.6c1.4,8.9-0.3,17.1-6,24.2c-4.6,5.9-10.7,9.3-18.1,10.3c-3.8,0.5-7.6,1-11.5,1
		c-14.8,0.1-29.6,0.1-44.5,0.1C-797.1,562-797.5,562-798,562z M-775,544.6c0.4,0,0.6,0.1,0.9,0.1c6.8,0,13.6,0,20.4,0
		c2,0,3.9-0.2,5.9-0.5c4.7-0.7,8.2-3.1,9.8-7.8c1-2.9,1.1-5.9,0.6-9c-0.7-3.7-2.8-6.3-6.4-7.8c-2.8-1.1-5.7-1.5-8.6-1.6
		c-7.2,0-14.3,0-21.4,0c-0.9,0-1.2,0.3-1.2,1.2c0,6.3,0,12.6,0,18.9C-775,540.2-775,542.3-775,544.6z M-774.9,501.4
		c0.4,0,0.6,0.1,0.9,0.1c7,0,14.1,0.1,21.1-0.1c2.6-0.1,5.2-0.7,7.6-1.5c3.4-1.1,5.4-3.6,5.8-7.2c0.2-1.6,0.3-3.3,0-4.9
		c-0.5-3.8-2.6-6.5-6.5-7.2c-3-0.6-6.1-1-9.2-1.1c-6.1-0.2-12.3-0.1-18.4-0.1c-0.4,0-0.9,0-1.3,0.1
		C-774.9,486.8-774.9,494-774.9,501.4z"/>
	<path class="st0" d="M-637.5,528.3c-17.5,0-34.7,0-52.1,0c0,0.7,0.1,1.4,0.1,2c1.3,13.5,11.6,16.4,19.8,15.6
		c5.1-0.5,9-2.8,11.6-7.3c0.2-0.4,0.7-0.7,1.1-0.8c5.9,0,11.9,0,17.8,0c0.2,0,0.3,0.1,0.5,0.1c-0.2,2.1-0.8,4-1.8,5.8
		c-4.5,8.2-11.2,13.7-20.3,16c-12.9,3.2-25,1.6-35.9-6.5c-5.2-3.8-8.5-8.9-10.1-15.1c-2.6-9.6-2.7-19.3,0-28.8
		c4-13.8,13.6-21.6,27.7-23.7c6.3-0.9,12.6-0.4,18.7,1.4c10.3,3.1,16.8,10.2,20.4,20.1c1.9,5.2,2.3,10.7,2.3,16.2
		C-637.4,525-637.5,526.6-637.5,528.3z M-657,515.9c-0.1-8.8-6.5-15.4-16.6-15.1c-8.6,0.2-16,7.6-15.3,15.1
		C-678.3,515.9-667.7,515.9-657,515.9z"/>
	<path class="st0" d="M-653.1,476.1c-13.3,0-26.6,0-40,0c-0.1-0.3-0.1-0.5-0.1-0.7c0-2.7,0-5.5,0-8.2c0-0.7,0.2-1,1-1
		c13,0,25.9,0,38.9,0c0.1,0,0.2,0,0.4,0.1C-653.1,469.5-653.1,472.8-653.1,476.1z"/>
</g>
</svg>
