<?xml version="1.0" encoding="utf-8"?>
<!-- Generator: Adobe Illustrator 19.1.0, SVG Export Plug-In . SVG Version: 6.00 Build 0)  -->
<svg version="1.1" id="Layer_1" xmlns="http://www.w3.org/2000/svg" xmlns:xlink="http://www.w3.org/1999/xlink" x="0px" y="0px"
	 viewBox="-14.2 24.8 98.4 98.3" style="enable-background:new -14.2 24.8 98.4 98.3;" xml:space="preserve">
<style type="text/css">
	.st0{fill:#FFFFFF;}
</style>
<g>
	<path class="st0" d="M7.1,92.2c0-12.1,0-24.2,0-36.4c0.4,0,0.8,0,1.2,0c5.6,0,11.3,0,16.9,0c2,0,4,0.4,5.8,1.3
		c3.2,1.6,4.5,4.3,4.7,7.8c0,1.2-0.1,2.3-0.4,3.4c-0.6,1.7-1.7,2.9-3.2,3.9c-0.2,0.1-0.4,0.3-0.7,0.4c0.2,0.1,0.3,0.1,0.4,0.2
		c2.9,1.2,4.5,3.3,5,6.4c0.5,3.2-0.1,6.2-2.2,8.8c-1.7,2.1-3.9,3.4-6.6,3.7c-1.4,0.2-2.8,0.4-4.2,0.4c-5.4,0-10.8,0-16.2,0
		C7.4,92.2,7.2,92.2,7.1,92.2z M15.4,85.9c0.1,0,0.2,0,0.3,0c2.5,0,4.9,0,7.4,0c0.7,0,1.4-0.1,2.1-0.2c1.7-0.3,3-1.1,3.6-2.8
		c0.4-1.1,0.4-2.1,0.2-3.3c-0.3-1.3-1-2.3-2.3-2.8c-1-0.4-2.1-0.5-3.1-0.6c-2.6,0-5.2,0-7.8,0c-0.3,0-0.4,0.1-0.4,0.4
		c0,2.3,0,4.6,0,6.9C15.4,84.3,15.4,85,15.4,85.9z M15.5,70.1c0.1,0,0.2,0,0.3,0c2.5,0,5.1,0,7.7,0c0.9,0,1.9-0.3,2.8-0.5
		c1.2-0.4,2-1.3,2.1-2.6c0.1-0.6,0.1-1.2,0-1.8c-0.2-1.4-0.9-2.4-2.4-2.6c-1.1-0.2-2.2-0.4-3.3-0.4c-2.2-0.1-4.5,0-6.7,0
		c-0.1,0-0.3,0-0.5,0C15.5,64.8,15.5,67.5,15.5,70.1z"/>
	<path class="st0" d="M65.4,79.9c-6.4,0-12.6,0-18.9,0c0,0.3,0,0.5,0,0.7c0.5,4.9,4.2,6,7.2,5.7c1.9-0.2,3.3-1,4.2-2.7
		c0.1-0.1,0.3-0.3,0.4-0.3c2.1,0,4.3,0,6.5,0c0.1,0,0.1,0,0.2,0c-0.1,0.8-0.3,1.5-0.7,2.1c-1.6,3-4.1,5-7.4,5.8
		c-4.7,1.2-9.1,0.6-13.1-2.4c-1.9-1.4-3.1-3.2-3.7-5.5c-0.9-3.5-1-7,0-10.5c1.5-5,4.9-7.9,10.1-8.6c2.3-0.3,4.6-0.1,6.8,0.5
		c3.7,1.1,6.1,3.7,7.4,7.3c0.7,1.9,0.8,3.9,0.8,5.9C65.5,78.7,65.4,79.3,65.4,79.9z M58.3,75.4c0-3.2-2.4-5.6-6-5.5
		c-3.1,0.1-5.8,2.8-5.6,5.5C50.6,75.4,54.5,75.4,58.3,75.4z"/>
	<path class="st0" d="M59.8,60.9c-4.8,0-9.7,0-14.5,0c0-0.1,0-0.2,0-0.3c0-1,0-2,0-3c0-0.3,0.1-0.4,0.4-0.4c4.7,0,9.4,0,14.1,0
		c0,0,0.1,0,0.1,0C59.8,58.5,59.8,59.7,59.8,60.9z"/>
</g>
<path class="st0" d="M35,123.2c-27.1,0-49.2-22.1-49.2-49.2S7.9,24.8,35,24.8c27.1,0,49.2,22.1,49.2,49.2S62.1,123.2,35,123.2z
	 M35,31.8C11.7,31.8-7.2,50.7-7.2,74c0,23.3,18.9,42.2,42.2,42.2S77.2,97.3,77.2,74C77.2,50.7,58.3,31.8,35,31.8z"/>
</svg>
