<?xml version="1.0" encoding="utf-8"?>
<!-- Generator: Adobe Illustrator 19.1.0, SVG Export Plug-In . SVG Version: 6.00 Build 0)  -->
<svg version="1.1" id="Layer_1" xmlns="http://www.w3.org/2000/svg" xmlns:xlink="http://www.w3.org/1999/xlink" x="0px" y="0px"
	 viewBox="-446.3 230.9 134.5 100" style="enable-background:new -446.3 230.9 134.5 100;" xml:space="preserve">
<style type="text/css">
	.st0{fill:#FFFFFF;}
	.st1{fill:#999999;}
</style>
<g>
	<path class="st0" d="M-379.1,274.6l60.8-43.7c-0.5-0.1-1.1,0.3-1.6,0.3h-118.4c-0.5,0-1.1-0.4-1.6-0.3L-379.1,274.6z"/>
	<path class="st1" d="M-313.5,233.3l1.1,1.5C-312.7,234.3-313.1,233.7-313.5,233.3z"/>
	<path class="st0" d="M-379.1,287l-67.2-49c0,0.4,0.5,0.8,0.5,1.1v83.5c0,4.7,2.7,8.4,7.4,8.4H-320c4.7,0,7.5-3.6,7.5-8.4V239
		c0-0.4,0.5-0.7,0.5-1.1L-379.1,287z"/>
	<path class="st1" d="M-445.9,234.8l1.1-1.5C-445.3,233.7-445.5,234.3-445.9,234.8z"/>
</g>
</svg>
