<?xml version="1.0" encoding="utf-8"?>
<!-- Generator: Adobe Illustrator 19.1.0, SVG Export Plug-In . SVG Version: 6.00 Build 0)  -->
<svg version="1.1" id="Layer_1" xmlns="http://www.w3.org/2000/svg" xmlns:xlink="http://www.w3.org/1999/xlink" x="0px" y="0px"
	 viewBox="-429 231 100 100" style="enable-background:new -429 231 100 100;" xml:space="preserve">
<style type="text/css">
	.st0{fill:#FFFFFF;}
</style>
<path class="st0" d="M-340.5,273.3h-8.7c0.6,2.5,1,5,1,7.7c0,17-13.8,30.8-30.8,30.8s-30.8-13.8-30.8-30.8c0-2.7,0.4-5.2,1-7.7h-8.7
	v42.3c0,2.1,1.7,3.8,3.9,3.8h69.2c2.1,0,3.9-1.7,3.9-3.8V273.3z M-340.5,246.4c0-2.1-1.7-3.8-3.9-3.8h-11.5c-2.1,0-3.8,1.7-3.8,3.8
	v11.5c0,2.1,1.7,3.8,3.8,3.8h11.5c2.1,0,3.9-1.7,3.9-3.8V246.4z M-379,261.8c-10.6,0-19.2,8.6-19.2,19.2s8.6,19.2,19.2,19.2
	s19.2-8.6,19.2-19.2S-368.4,261.8-379,261.8 M-340.5,331h-77c-6.3,0-11.5-5.2-11.5-11.5v-77c0-6.3,5.2-11.5,11.5-11.5h76.9
	c6.4,0,11.6,5.2,11.6,11.5v76.9C-329,325.8-334.2,331-340.5,331"/>
</svg>
