<svg xmlns="http://www.w3.org/2000/svg" viewBox="-74.1 23.8 98.4 98.3" enable-background="new -74.1 23.8 98.4 98.3"><style type="text/css">.st0{fill:#FFFFFF;}</style><path class="st0" d="M-20.5 95.5c0-6-.1-11.6.1-17.2.1-1.6.4-3.3 1-4.8 1-2.6 3.6-3.8 6.4-3.4 2.8.4 3.8 2.5 4 4.9.2 1.7.2 3.5.2 5.3v15.2h10.5c0-7.9.2-15.5-.1-23.2-.1-4.2-1.3-8.1-5.4-10.3-4.8-2.5-11.3-1.6-15.3 2.1-.6.5-1.1 1-1.9 1.7-.1-1.5-.1-2.7-.2-3.9h-9.8v33.6h10.5zm-17.5 0v-33.6h-10.3v33.6h10.3zm-5.2-38.2c3.5.1 6.4-2.8 6.5-6.2.1-3.5-2.9-6.5-6.4-6.5-3.4 0-6.3 3-6.3 6.4s2.8 6.3 6.2 6.3zM-24.9 122.2c-27.1 0-49.2-22.1-49.2-49.2s22.1-49.2 49.2-49.2 49.2 22.1 49.2 49.2-22.1 49.2-49.2 49.2zm0-91.4c-23.3 0-42.2 18.9-42.2 42.2 0 23.3 18.9 42.2 42.2 42.2s42.2-18.9 42.2-42.2c0-23.3-18.9-42.2-42.2-42.2z"/></svg>