<?xml version="1.0" encoding="utf-8"?>
<!-- Generator: Adobe Illustrator 19.1.0, SVG Export Plug-In . SVG Version: 6.00 Build 0)  -->
<svg version="1.1" id="Layer_1" xmlns="http://www.w3.org/2000/svg" xmlns:xlink="http://www.w3.org/1999/xlink" x="0px" y="0px"
	 viewBox="-429 231 100.2 100" style="enable-background:new -429 231 100.2 100;" xml:space="preserve">
<style type="text/css">
	.st0{fill:#FFFFFF;}
</style>
<g>
	<path class="st0" d="M-372.2,331c0-11.7-0.1-22.7,0.1-33.7c0.1-3.2,0.8-6.5,1.9-9.5c2-5,7.1-7.4,12.5-6.6c5.5,0.8,7.4,4.8,7.9,9.6
		c0.4,3.4,0.3,6.9,0.3,10.3c0,9.9,0,19.8,0,29.8c7.2,0,13.8,0,20.6,0c0-15.4,0.3-30.4-0.1-45.5c-0.2-8.1-2.5-15.9-10.6-20.2
		c-9.4-4.9-22.1-3.1-29.9,4.2c-1.1,1-2.2,2-3.7,3.4c-0.1-3-0.2-5.3-0.4-7.7c-6.5,0-12.7,0-19.1,0c0,22.1,0,44,0,65.9
		C-385.9,331-379.4,331-372.2,331z M-406.5,330.9c0-22.2,0-44,0-65.8c-7,0-13.5,0-20.1,0c0,22.1,0,43.8,0,65.8
		C-419.9,330.9-413.4,330.9-406.5,330.9z M-416.7,256c6.8,0.1,12.6-5.5,12.7-12.2c0.2-6.8-5.7-12.8-12.6-12.8
		c-6.6,0-12.3,5.8-12.4,12.5S-423.4,256-416.7,256z"/>
</g>
</svg>
