<?xml version="1.0" encoding="utf-8"?>
<!-- Generator: Adobe Illustrator 19.1.0, SVG Export Plug-In . SVG Version: 6.00 Build 0)  -->
<svg version="1.1" id="Layer_1" xmlns="http://www.w3.org/2000/svg" xmlns:xlink="http://www.w3.org/1999/xlink" x="0px" y="0px"
	 viewBox="-524.6 285.3 45.3 45.2" style="enable-background:new -524.6 285.3 45.3 45.2;" xml:space="preserve">
<path d="M-482.5,329.9l-41.6-41.6c-0.7-0.7-0.7-1.8,0-2.5c0.7-0.7,1.9-0.8,2.6-0.1l41.6,41.6c0.7,0.7,0.7,1.8,0,2.5
	C-480.6,330.6-481.8,330.7-482.5,329.9z M-479.9,288.3l-41.6,41.6c-0.7,0.7-1.8,0.7-2.5,0c-0.7-0.7-0.7-1.8,0-2.5l41.6-41.6
	c0.7-0.7,1.8-0.7,2.5,0C-479.2,286.5-479.2,287.6-479.9,288.3z"/>
</svg>
