<?xml version="1.0" encoding="utf-8"?>
<!-- Generator: Adobe Illustrator 19.1.0, SVG Export Plug-In . SVG Version: 6.00 Build 0)  -->
<svg version="1.1" id="Layer_1" xmlns="http://www.w3.org/2000/svg" xmlns:xlink="http://www.w3.org/1999/xlink" x="0px" y="0px"
	 viewBox="-445 256 68 49" style="enable-background:new -445 256 68 49;" xml:space="preserve">
<path d="M-381.6,261.7h-58.8c-1,0-1.8-0.8-1.8-1.8s0.8-1.9,1.8-1.9h58.8c1,0,1.8,0.8,1.8,1.8S-380.6,261.7-381.6,261.7z
	 M-381.6,281.9h-58.8c-1,0-1.8-0.8-1.8-1.8s0.8-1.8,1.8-1.8h58.8c1,0,1.8,0.8,1.8,1.8S-380.6,281.9-381.6,281.9z M-381.6,303h-58.8
	c-1,0-1.8-0.8-1.8-1.8s0.8-1.8,1.8-1.8h58.8c1,0,1.8,0.8,1.8,1.8S-380.6,303-381.6,303z"/>
</svg>
