<?xml version="1.0" encoding="utf-8"?>
<!-- Generator: Adobe Illustrator 19.1.0, SVG Export Plug-In . SVG Version: 6.00 Build 0)  -->
<svg version="1.1" id="Layer_1" xmlns="http://www.w3.org/2000/svg" xmlns:xlink="http://www.w3.org/1999/xlink" x="0px" y="0px"
	 viewBox="0 0 402.4 72.6" style="enable-background:new 0 0 402.4 72.6;" xml:space="preserve">
<style type="text/css">
	.st0{fill:#FFFFFF;}
</style>
<g>
	<path class="st0" d="M8.5,38.9c0.1,2.3,0.5,4.4,1.1,6.2c0.7,1.8,1.7,2.8,3.1,3.1c1.5,0.4,3.3-0.4,5.3-2.3c2-1.8,3.9-4,5.6-6.5
		c0.9-1.4,1.8-2.7,2.5-4c0.8-1.4,1.4-2.6,1.9-3.7c0.4-0.3,0.7-0.5,1.1-0.4c0.4,0,0.7,0.3,1.1,0.6c-0.6,1.2-1.3,2.6-2.1,4.1
		c-0.8,1.5-1.7,2.9-2.7,4.4c-1.8,2.8-3.9,5.2-6.3,7.2c-2,1.6-4,2.5-6.1,2.5c-0.4,0-0.8,0-1.3-0.1c-2.2-0.4-4.1-1.2-5.7-2.4
		c-1.5-1.2-2.8-2.6-3.8-4.4C0.8,40.3,0,37,0,33.2v-1c0.2-4.2,1.2-8,3-11.3c0.8-1.5,1.8-2.6,2.8-3.4c1-0.8,2-1.3,3.1-1.6
		c0.5-0.1,0.9-0.1,1.4-0.1c1.4,0,2.6,0.5,3.8,1.5c1.5,1.4,2.3,3.3,2.4,5.8c0,4-1.2,7-3.8,9.2c-1.2,1-2.6,1.9-4.1,2.6v0.1
		C8.5,36.3,8.5,37.6,8.5,38.9z M12,30.2c1.8-2.1,2.8-4.4,2.8-6.6c0-2.3-0.4-3.5-1.3-3.8c-0.8-0.2-1.7,0.8-2.5,3.1
		c-0.9,2.3-1.5,4.9-2,8c-0.1,0.7-0.2,1.4-0.3,2.1C10.1,32.1,11.2,31.2,12,30.2z"/>
	<path class="st0" d="M34.9,23.9c0.7-1,1.7-2.4,2.9-4.2c1.3-1.6,2.6-2.5,4-2.5h0.1c1.4,0,2.5,0.5,3.4,1.6c0.9,1.1,1.6,2.3,2.1,3.6
		c0.2,0.7,0.4,1.5,0.6,2.2c0.1,0.7,0.2,1.3,0.3,1.9c0.5-1.6,1.5-3.3,3.3-5.2c1.7-1.9,3.6-2.8,5.5-2.7c1.6,0,2.8,1,3.4,2.9
		c0.6,1.8,1,4.1,1.1,6.8c0,1.4,0,2.9-0.1,4.5c-0.1,1.5-0.2,3.1-0.3,4.6c-0.3,3.6-0.6,6.8-0.9,9.7c-0.3,2.8-0.1,4.3,0.5,4.4
		c0.7,0.2,1.9-0.8,3.5-3c1.5-2.2,3.1-4.7,4.7-7.5c0.8-1.5,1.6-2.9,2.4-4.4c0.8-1.5,1.4-2.8,2-4c0.4-0.2,0.7-0.3,1.1-0.3
		c0.4,0,0.7,0.2,1,0.4c-0.8,1.9-2,4.3-3.6,7.4c-1.5,3.1-3.2,5.8-5,8.1c-1.2,1.6-2.3,2.9-3.5,3.9c-1,0.8-1.8,1.2-2.7,1.2
		c-0.2,0-0.4,0-0.6-0.1c-2.1-0.5-3.4-2.1-3.9-5.1c-0.5-3-0.7-6.2-0.5-9.8c0-1.5,0.1-3.1,0.3-4.6c0.1-1.5,0.3-3,0.4-4.4
		c0.2-2.6,0.4-4.8,0.4-6.6c0-1.7-0.2-2.6-0.8-2.7c-1.1,0-2.4,1-4,3c-1.5,2.1-2.5,4.3-2.9,6.6c-0.1,1.9-0.1,3.8-0.1,5.7
		c0,1.9,0,3.3-0.2,4.2c-0.3,0.8-1.3,1.2-3,1.2c-1.7,0-2.8-0.5-3.3-1.6c0-1.3,0-2.8,0.1-4.6c0-1.8,0-3.6,0.1-5.4
		c0-2.7-0.1-5.2-0.3-7.3c-0.2-2.2-0.6-3.3-1.2-3.3c-0.5,0-1.2,0.5-2.1,1.4c-0.9,0.9-1.6,1.9-2.3,3.1c-0.5,0.8-0.8,1.5-1.2,2.2
		c-0.3,0.7-0.5,1.3-0.5,1.8c0.3,2.7,0.5,5.7,0.5,8.7v8.4c-1,1.9-2.3,3-3.8,3.1c-1.5,0.2-2.7-0.3-3.4-1.6c-0.3-1.5-0.4-3.1-0.4-5
		c0-1.9,0-3.9,0.1-5.9c0.2-3.7,0.4-7.3,0.5-10.6c0.2-3.3-0.1-5.3-1-6.2v-0.1c0-0.7,0.4-1,1.3-1c0.9,0,1.8,0.5,2.9,1.4
		c0.5,0.5,1.1,1.2,1.6,2.1C34,21.7,34.5,22.7,34.9,23.9z"/>
	<path class="st0" d="M73.9,21.1c0.3-0.9,1.1-1.6,2.3-2.1c0.6-0.2,1.2-0.3,1.7-0.3c0.5,0,1,0.1,1.4,0.3c0.3,0.2,0.5,0.4,0.7,0.7
		c0.1,0.3,0.2,0.6,0.2,1c0,0.2-0.3,1.6-0.7,4.2s-0.8,5.5-1.1,8.8c-0.3,2.6-0.5,5.2-0.7,7.7c-0.2,2.6-0.2,4.6-0.1,6.2
		c0,0.9,0.2,1.6,0.3,2.1c0.2,0.5,0.4,0.8,0.8,0.8c0.7,0,2-1.1,3.7-3.5c1.7-2.4,3.4-4.9,5.1-7.6c1-1.8,2-3.4,2.9-4.9
		c0.9-1.5,1.4-2.6,1.7-3.1c0.4-0.2,0.7-0.2,1.1-0.2c0.3,0,0.7,0.2,1,0.5c-0.1,0.3-0.4,0.8-0.7,1.4c-0.3,0.6-0.7,1.4-1.2,2.2
		c-0.9,1.5-1.9,3.3-3.1,5.3c-1.2,2-2.4,3.9-3.7,5.6c-1.3,1.8-2.6,3.3-3.8,4.6c-1.2,1.1-2.2,1.7-3.1,1.7h-0.2
		c-1.6-0.1-2.9-0.6-3.9-1.5c-1-0.9-1.7-2.1-2.1-3.5c-0.5-1.5-0.7-3.2-0.8-5.1v-0.8c0-1.6,0.1-3.3,0.3-5c0.4-3.6,0.9-7,1.6-10.2
		C74.2,23.6,74.3,21.7,73.9,21.1z M74.4,7.7c0-0.1-0.1-0.2-0.1-0.3c0-0.7,0.4-1.5,1.1-2.3c0.8-1,1.8-1.4,2.8-1.4
		c0.2,0.7,0.8,1.2,1.6,1.5c0.9,0.2,1.4,0.8,1.4,1.7V7c0,0.7-0.2,1.5-0.7,2.4c-0.5,1-1.2,1.5-2.1,1.6c-0.1,0-0.3,0.1-0.4,0.1
		c-0.9,0-1.6-0.4-2.3-1.1C75,9.1,74.5,8.3,74.4,7.7z"/>
	<path class="st0" d="M98,29.6c-0.2,1.9-0.3,3.7-0.4,5.4c-0.1,1.7-0.1,3.4-0.1,5c0,2.9,0.1,5.3,0.4,7.2c0.3,2,0.9,3.1,1.6,3.3
		c0.9,0.3,2.2-0.5,3.8-2.6c1.6-2,3.2-4.3,4.8-6.8c1-1.7,2-3.3,2.9-4.9c0.9-1.6,1.5-2.9,2-3.8c0.4-0.2,0.7-0.3,1.1-0.3
		c0.4,0,0.7,0.2,1.1,0.5c-0.5,1.1-1.3,2.6-2.1,4.3c-0.9,1.8-1.8,3.6-2.9,5.4c-1.6,2.7-3.4,5.2-5.4,7.2c-1.6,1.7-3.3,2.5-4.9,2.5
		c-0.4,0-0.8,0-1.2-0.1c-1.3-0.3-2.5-0.9-3.4-1.8c-0.9-0.9-1.7-2.1-2.3-3.5c-1.1-2.6-1.8-5.7-2-9.5v-2.4c0-3,0.2-6.1,0.6-9.3
		c0.6-4.1,1.5-8,2.6-11.8c1.1-3.8,2.4-6.9,3.8-9.4c0.7-0.9,1.7-1.5,2.9-1.8c1-0.3,1.9-0.4,2.5-0.4h0.4c2,0.2,3.1,1.8,3.4,4.7
		c0.3,3-0.1,6.2-1.2,9.7c-0.6,1.9-1.4,3.8-2.3,5.5s-2.1,3.3-3.3,4.6c-0.7,0.8-1.5,1.5-2.3,2.1C98,29.1,98,29.3,98,29.6z M98.7,25.6
		c0.9-1,1.7-2.2,2.5-3.6c0.7-1.3,1.4-2.7,1.9-4.2c0.5-1.2,0.8-2.4,1.1-3.6c0.3-1.2,0.5-2.3,0.7-3.4c0.3-2.1,0.4-3.8,0.3-5.2
		c-0.1-1.4-0.5-2.2-1-2.3c-0.7-0.1-1.4,1.1-2.2,3.6c-0.8,2.6-1.5,5.7-2.2,9.5c-0.3,2-0.6,4.1-1,6.4c-0.1,1-0.3,2.1-0.4,3.1
		C98.5,25.9,98.6,25.8,98.7,25.6z"/>
	<path class="st0" d="M144,32.3c0.3-0.2,0.7-0.3,1.1-0.3c0.4,0,0.7,0.2,1.1,0.6c-1.2,2.3-2.5,4.3-3.8,6.2c-1.3,1.8-2.5,3.4-3.8,4.8
		c-1.9,2.1-3.6,3.7-5.2,5.1c-0.1,2.9-0.4,5.8-0.7,8.7c-0.5,4.4-1.4,7.9-2.7,10.7c-0.8,1.5-1.7,2.7-2.7,3.5c-1,0.8-2.3,1.2-3.7,1.2
		h-0.1c-0.7,0-1.3-0.2-1.8-0.5c-0.5-0.4-0.9-0.8-1.2-1.4c-0.7-1.5-0.8-3.7-0.3-6.4c0.5-2.7,1.4-5.2,2.6-7.6c0.7-1.3,1.4-2.5,2.2-3.5
		c0.8-1,1.6-1.8,2.5-2.4c0.1-0.1,0.3-0.2,0.4-0.3c0-1.6,0.1-3.2,0.1-4.8c0-2.7,0.1-4.8,0.1-6.4c-0.5,2.5-1.3,4.6-2.5,6.2
		c-1.2,1.6-2.6,2.5-4.1,2.5c-3.3,0-5.6-2.2-6.9-6.6c-1-3.3-1.5-8.2-1.5-14.6c0-2.2,0-4.6,0.1-7.1c0.3-1.4,1.2-2.2,2.8-2.6
		c0.2,0,0.5-0.1,0.7-0.1c1.3,0,2.4,0.8,3.1,2.5c-0.3,1.7-0.6,3.7-0.9,6.1c-0.3,2.4-0.5,4.8-0.6,7.2c-0.1,3.6,0,6.8,0.5,9.6
		c0.5,2.8,1.6,4.2,3.4,4.2c1.1,0,2.2-1.3,3.2-3.9c1-2.6,1.9-5.4,2.5-8.6c0.4-2.1,0.7-4.2,0.9-6.3c0.2-2.1,0.3-3.9,0.1-5.3
		c0.1-0.6,0.2-1.1,0.4-1.4c0.2-0.4,0.5-0.6,0.8-0.8c0.7-0.4,1.5-0.3,2.3,0.2c0.9,0.5,1.4,1.2,1.5,2c-0.4,0.1-0.6,1.1-0.6,3.1
		c0,2,0,4.5,0,7.6c0,1.6,0.1,3.4,0.1,5.3V44c0,0.6,0,1.3-0.1,1.9c1.5-1.4,3.1-3.1,4.8-5C140.5,38.4,142.4,35.5,144,32.3z
		 M125.7,56.5c-0.6,1.7-1.2,3.5-1.6,5.4c-0.5,2.3-0.9,4.4-1,6.4c-0.1,1.9,0.1,2.9,0.7,2.9c0.4,0,0.8-0.3,1.1-0.8
		c0.4-0.5,0.7-1.2,1-2.1c0.5-1.6,0.9-3.7,1.2-6.4c0.3-2.6,0.5-5.3,0.7-8.1l0.1-1l-0.1,0.1C127,53.6,126.4,54.8,125.7,56.5z"/>
	<path class="st0" d="M174.8,29.6c-0.2,1.9-0.3,3.7-0.4,5.4c-0.1,1.7-0.1,3.4-0.1,5c0,2.9,0.1,5.3,0.4,7.2c0.3,2,0.9,3.1,1.6,3.3
		c0.9,0.3,2.2-0.5,3.8-2.6c1.6-2,3.2-4.3,4.8-6.8c1-1.7,2-3.3,2.9-4.9c0.9-1.6,1.5-2.9,2-3.8c0.4-0.2,0.7-0.3,1.1-0.3
		c0.4,0,0.7,0.2,1.1,0.5c-0.5,1.1-1.3,2.6-2.1,4.3c-0.9,1.8-1.8,3.6-2.9,5.4c-1.6,2.7-3.4,5.2-5.4,7.2c-1.6,1.7-3.3,2.5-4.9,2.5
		c-0.4,0-0.8,0-1.2-0.1c-1.3-0.3-2.5-0.9-3.4-1.8c-0.9-0.9-1.7-2.1-2.3-3.5c-1.1-2.6-1.8-5.7-2-9.5v-2.4c0-3,0.2-6.1,0.6-9.3
		c0.6-4.1,1.5-8,2.6-11.8c1.1-3.8,2.4-6.9,3.8-9.4c0.7-0.9,1.7-1.5,2.9-1.8c1-0.3,1.9-0.4,2.5-0.4h0.4c2,0.2,3.1,1.8,3.4,4.7
		c0.3,3-0.1,6.2-1.2,9.7c-0.6,1.9-1.4,3.8-2.3,5.5s-2.1,3.3-3.3,4.6c-0.7,0.8-1.5,1.5-2.3,2.1C174.8,29.1,174.8,29.3,174.8,29.6z
		 M175.5,25.6c0.9-1,1.7-2.2,2.5-3.6c0.7-1.3,1.4-2.7,1.9-4.2c0.5-1.2,0.8-2.4,1.1-3.6c0.3-1.2,0.5-2.3,0.7-3.4
		c0.3-2.1,0.4-3.8,0.3-5.2c-0.1-1.4-0.5-2.2-1-2.3c-0.7-0.1-1.4,1.1-2.2,3.6c-0.8,2.6-1.5,5.7-2.2,9.5c-0.3,2-0.6,4.1-1,6.4
		c-0.1,1-0.3,2.1-0.4,3.1C175.2,25.9,175.3,25.8,175.5,25.6z"/>
	<path class="st0" d="M209.9,19.2c0.1,0.2,0.2,0.4,0.1,0.6c0,0.2-0.2,0.3-0.4,0.4c-0.8-0.8-1.6-1.3-2.5-1.3c-0.8,0-1.6,0.2-2.5,0.7
		c-1.4,0.9-2.7,2.6-4,5c-1.2,2.4-2.2,4.9-2.9,7.6c-1,3.4-1.5,6.6-1.5,9.4c0,2.8,0.7,4.2,2,4.2c0.6,0,1.3-1,2.2-2.9
		c0.9-2,1.7-4.2,2.6-6.7c1.1-3.1,2.1-6.1,2.9-9c0.8-2.9,1.3-4.5,1.4-4.9c0.3-0.7,1.2-1.1,2.7-1.4c1.5-0.3,2.6-0.1,3.3,0.5
		c0.2,0.1,0.3,0.3,0.3,0.5c0.1,0.2,0.1,0.4,0.1,0.7c-0.3-0.1-0.8,1.1-1.3,3.6c-0.5,2.4-1.1,5.2-1.6,8.4c-0.4,2.5-0.8,5-1.1,7.6
		c-0.4,2.5-0.6,4.6-0.7,6.2c0,0.9,0,1.5,0,2.1c0,0.5,0.1,0.8,0.3,0.8c0.7,0.1,1.7-0.9,3-3.1c1.4-2.2,2.7-4.6,4-7.2
		c1.1-2.1,2.1-4.2,3-6.1c0.9-1.9,1.5-3.1,1.8-3.8c0.3-0.1,0.7-0.1,1-0.1c0.4,0,0.7,0.2,1.1,0.4c-0.3,0.6-0.9,1.9-1.8,4
		c-0.9,2.1-1.9,4.2-3.1,6.6c-1.5,2.9-3.1,5.5-4.7,7.9c-1.6,2.3-3,3.4-4.2,3.4h-0.2c-1.1-0.1-2-0.5-2.6-1.2c-0.6-0.6-1.1-1.5-1.4-2.5
		c-0.3-0.8-0.5-1.7-0.5-2.7c-0.1-1-0.1-2-0.1-3.1c0.1-2,0.3-3.9,0.6-5.8c0.3-1.8,0.5-3.3,0.7-4.4c-0.1,0.5-0.3,1.2-0.6,2.2
		c-0.3,1.1-0.7,2.3-1.2,3.6c-0.8,2-1.6,3.8-2.5,5.6c-1,1.8-1.9,2.7-2.7,2.8c-2.4,0.2-4.7-0.2-6.8-1.4c-2.1-1.2-3.2-3.1-3.3-5.7v-0.8
		c0-3.2,0.5-6.2,1.5-9.2c1.1-3.1,2.4-5.8,4-8c0.9-1.2,1.8-2.2,2.7-3.1c0.9-0.9,1.8-1.5,2.7-2c0.4-0.2,0.9-0.4,1.5-0.5
		c0.6-0.1,1.3-0.2,2-0.3h0.8c1,0,2.1,0.1,3.1,0.4C208.3,17.8,209.3,18.4,209.9,19.2z"/>
	<path class="st0" d="M226.7,22.6c0.3,1.2,0.6,2.6,0.9,4.1c0.3,1.5,0.6,3.1,0.9,4.6c0.6,3,1.1,5.7,1.6,8.1c0.5,2.4,0.9,3.7,1.2,3.8
		c0.2-0.2,0.8-1.7,1.7-4.6c0.9-2.9,2-6.2,3.1-9.7c0.6-2,1.2-3.9,1.9-5.7c0.7-1.9,1.3-3.5,1.9-5c0.2-0.5,0.5-0.7,0.8-0.7
		c0.1,0,0.3,0,0.5,0.1c0.4,0.1,0.6,0.3,0.6,0.6c0,0.1-0.1,0.3-0.2,0.5c-1.5,4.6-3.1,9.4-4.6,14.2c-1.5,4.8-3.1,9.4-4.9,13.8
		c-0.6,1.5-1.8,2.5-3.4,3.1c-0.5,0.2-0.9,0.3-1.2,0.3c-1,0-1.7-0.6-2.1-1.9c-0.5-1.5-1.1-3.1-1.6-5c-0.5-1.9-1-3.8-1.4-5.7
		c-0.9-3.7-1.7-7.2-2.5-10.5c-0.8-3.3-1.6-5.5-2.4-6.5c0.3-0.7,0.7-1.3,1.2-1.6c0.5-0.3,1-0.5,1.6-0.6c1.3-0.1,2.6,0.4,4,1.4
		C225.5,20.7,226.3,21.7,226.7,22.6z"/>
	<path class="st0" d="M245.8,21.1c0.3-0.9,1.1-1.6,2.3-2.1c0.6-0.2,1.2-0.3,1.7-0.3c0.5,0,1,0.1,1.4,0.3c0.3,0.2,0.5,0.4,0.7,0.7
		c0.1,0.3,0.2,0.6,0.2,1c0,0.2-0.3,1.6-0.7,4.2s-0.8,5.5-1.1,8.8c-0.3,2.6-0.5,5.2-0.7,7.7c-0.2,2.6-0.2,4.6-0.1,6.2
		c0,0.9,0.2,1.6,0.3,2.1c0.2,0.5,0.4,0.8,0.8,0.8c0.7,0,2-1.1,3.7-3.5c1.7-2.4,3.4-4.9,5.1-7.6c1-1.8,2-3.4,2.9-4.9
		c0.9-1.5,1.4-2.6,1.7-3.1c0.4-0.2,0.7-0.2,1.1-0.2c0.3,0,0.7,0.2,1,0.5c-0.1,0.3-0.4,0.8-0.7,1.4c-0.3,0.6-0.7,1.4-1.2,2.2
		c-0.9,1.5-1.9,3.3-3.1,5.3c-1.2,2-2.4,3.9-3.7,5.6c-1.3,1.8-2.6,3.3-3.8,4.6c-1.2,1.1-2.2,1.7-3.1,1.7h-0.2
		c-1.6-0.1-2.9-0.6-3.9-1.5c-1-0.9-1.7-2.1-2.1-3.5c-0.5-1.5-0.7-3.2-0.8-5.1v-0.8c0-1.6,0.1-3.3,0.3-5c0.4-3.6,0.9-7,1.6-10.2
		C246.1,23.6,246.2,21.7,245.8,21.1z M246.4,7.7c0-0.1-0.1-0.2-0.1-0.3c0-0.7,0.4-1.5,1.1-2.3c0.8-1,1.8-1.4,2.8-1.4
		c0.2,0.7,0.8,1.2,1.6,1.5c0.9,0.2,1.4,0.8,1.4,1.7V7c0,0.7-0.2,1.5-0.7,2.4c-0.5,1-1.2,1.5-2.1,1.6c-0.1,0-0.3,0.1-0.4,0.1
		c-0.9,0-1.6-0.4-2.3-1.1C246.9,9.1,246.5,8.3,246.4,7.7z"/>
	<path class="st0" d="M268.3,15.8c0.5,0,0.9,0.3,1.2,0.7c0.3,0.4,0.6,0.9,0.8,1.6c0.4,1.2,0.6,2.8,0.6,4.6c0,1.8,0.1,3.6,0.2,5.3
		c0.3-1,0.9-2.5,1.8-4.2c0.9-1.7,2-3.2,3.3-4.5c0.7-0.7,1.4-1.2,2.2-1.6c0.7-0.4,1.5-0.6,2.3-0.5c1.9,0.1,3.1,1.7,3.6,4.6
		c0.5,2.9,0.6,6.2,0.4,9.8c-0.1,1.6-0.2,3.2-0.3,4.8c-0.1,1.6-0.3,3.1-0.4,4.6c-0.3,2.7-0.5,5.1-0.7,7s0,2.9,0.3,3
		c0.9,0.3,2.1-0.6,3.6-2.7c1.5-2.1,2.9-4.3,4.3-6.8c0.9-1.7,1.8-3.3,2.5-4.9c0.8-1.5,1.4-2.8,1.8-3.7c0.4-0.2,0.7-0.3,1.1-0.3
		c0.4,0,0.8,0.1,1.2,0.5c-0.5,1-1.1,2.3-1.8,4c-0.8,1.7-1.7,3.5-2.7,5.4c-1.5,2.8-3.3,5.3-5.1,7.6c-1.5,1.9-3.1,2.9-4.5,2.9
		c-0.2,0-0.5,0-0.8-0.1c-1-0.3-1.9-0.8-2.5-1.6c-0.7-0.8-1.2-1.8-1.6-2.9c-0.6-1.9-1-4.1-1-6.6c0-2.6,0-5.1,0.3-7.8
		c0.4-3.9,0.8-7.4,1.2-10.5c0.5-3.1,0.5-4.7,0.1-4.7c-0.8,0-1.7,0.6-2.7,1.9c-1.1,1.3-2.1,2.8-3,4.6c-0.5,0.9-1,1.8-1.4,2.7
		c-0.4,1-0.8,1.8-1,2.7c0,0.9-0.1,1.8-0.1,2.8c0,1-0.1,2-0.1,2.9c-0.1,1.8-0.2,3.5-0.3,4.9c-0.1,1.5-0.3,2.5-0.5,2.9
		c-1.2,1.2-2.5,2.1-3.8,2.5c-1.4,0.5-2.6-0.3-3.6-2.4c-0.1-1-0.1-2-0.1-3.1c0-1,0-1.9,0.1-2.9c0.1-2.1,0.3-4.1,0.6-6
		c0.5-3.6,1-6.8,1.4-9.6c0.4-2.8,0.2-4.6-0.6-5.2c0.5-0.7,1-1.2,1.8-1.5c0.5-0.2,1.1-0.3,1.6-0.3C267.9,15.7,268.1,15.7,268.3,15.8z
		"/>
	<path class="st0" d="M302.8,22.4c-0.2,0.4-0.7,0.7-1.4,1c-0.8,0.2-1.4,0-1.6-0.7c0-1.1-0.1-2-0.3-2.7c-0.2-0.7-0.5-1.2-0.9-1.5
		c-0.8-0.8-1.8-0.7-2.8,0.1c-1,0.8-1.4,2.2-1.3,4c0.1,0.7,0.3,1.4,0.8,2.1c0.4,0.6,0.9,1.3,1.5,1.8c1.2,1,2.6,2.1,4.3,3
		c1.6,1,3.3,2.1,4.9,3.3c1.3,1,2.4,2.1,3.3,3.4c0.3,0.4,0.6,0.9,0.8,1.4c0.3-0.2,0.6-0.4,0.9-0.5c2.4-1.4,4.1-3.2,5.3-5.5
		c0.4-0.1,0.8-0.2,1.1-0.2c0.3,0,0.7,0.1,1,0.4c-0.4,1-1,1.9-1.6,2.7c-0.6,0.8-1.4,1.5-2.2,2.2c-1.2,1-2.4,2-3.7,2.8
		c0.1,0.5,0.2,0.9,0.3,1.4c0.3,1.6,0.2,3.1-0.1,4.6c-0.3,1.5-0.8,2.8-1.4,4c-0.5,1-1.2,1.9-1.9,2.7c-0.8,0.8-1.6,1.5-2.5,2.1
		c-1.6,1.1-3.3,1.7-5,1.8h-0.4c-1.6,0-3-0.6-4.2-1.7c-1-1-1.2-2.3-0.4-3.7c0.7-1.4,1.9-2.8,3.5-4.4c0.9-0.8,1.8-1.6,2.8-2.5l1.3-1
		c0-0.5-0.1-0.9-0.2-1.3c-0.4-1.6-1.6-3.3-3.6-5.1c-1.9-1.7-3.7-3.6-5.5-5.6c-0.9-1-1.7-2.2-2.3-3.3c-0.6-1.1-1-2.3-1.1-3.6v-0.4
		c0-0.8,0.1-1.5,0.4-2.1c0.3-0.8,0.8-1.5,1.4-2.1c1.1-1.1,2.5-1.9,4.1-2.2c0.5-0.1,0.9-0.2,1.4-0.2c1,0,2,0.3,2.9,0.9
		c0.6,0.5,1.1,1.1,1.6,1.8C302.5,20.3,302.7,21.2,302.8,22.4z M300.7,47.6c-1.5,1.4-2.7,2.6-3.5,3.7c-0.4,0.5-0.7,1-0.8,1.5
		c-0.1,0.4-0.1,0.7,0.2,1c0.6,0.5,1.4,0.3,2.5-0.7c1-1,1.9-2.4,2.7-4.1c0.4-1,0.7-2,0.9-3.1C302,46.4,301.4,47,300.7,47.6z"/>
	<path class="st0" d="M322.2,1.6c0.4,0.4,0.7,1.7,0.8,3.8c0.1,2.2,0.1,4.6,0.1,7.2c0,3.2-0.1,6.3-0.2,9.2c0,2.8,0,4.3,0.1,4.4
		c0.1-0.4,0.5-1.3,1.2-2.6c0.6-1.4,1.4-2.7,2.4-4c0.5-0.7,1.1-1.3,1.8-1.9c0.6-0.5,1.3-1,2.1-1.2c1.6-0.5,3.3-0.5,5.1,0
		c1.8,0.5,2.7,1.9,2.7,4.2v0.1c0,1.1-0.2,2.1-0.7,3.1c-0.5,1-1,2.1-1.8,3c-1.7,2.2-3.8,4.1-6.3,5.5c0.5,0.5,1,1.3,1.4,2.3
		c0.5,1.5,0.9,3.1,1.2,4.9c0.5,2.8,0.8,5.5,1,8.1c0.3,2.6,0.8,4,1.6,4.2c0.6,0.2,1.8-0.9,3.3-3.2c1.6-2.3,3.2-4.8,4.7-7.5
		c1-1.8,2-3.5,2.8-5.1c0.9-1.6,1.5-2.8,1.8-3.6c0.4-0.1,0.8-0.1,1.2-0.1c0.4,0,0.7,0.2,1,0.5c-0.5,1.2-1.2,2.7-2.1,4.5
		c-0.9,1.8-1.9,3.7-3.1,5.5c-1.6,2.8-3.4,5.3-5.3,7.5c-1.7,2.1-3.1,3.1-4.4,3.1c-0.1,0-0.2,0-0.3-0.1c-1.2-0.2-2.1-0.7-2.9-1.5
		c-0.7-0.8-1.3-1.8-1.8-3c-0.7-1.8-1.2-3.8-1.5-6c-0.3-2.2-0.7-4.1-1.2-5.7c-0.3-0.9-0.6-1.7-1-2.3c-0.2-0.3-0.4-0.5-0.5-0.7
		c-0.7,0.2-1.3,0.2-1.7,0.1c0,0.8,0,1.7,0.1,2.7l0.3,2.7c0.2,1.8,0.3,3.4,0.5,4.9s0.1,2.6-0.2,3.2c-0.4,0.5-1.2,0.8-2.4,1
		c-0.5,0.1-0.9,0.1-1.2,0.1c-0.8,0-1.5-0.2-2.1-0.5c-0.4-0.2-0.8-0.5-1.1-0.9c-0.3-0.4-0.5-0.8-0.6-1.4c-0.3-3-0.5-6.2-0.5-9.7v-1.4
		c0-3,0-5.9,0.1-8.7c0.1-4.1,0.3-7.8,0.5-11.3c0.2-3.5,0.3-6.3,0.3-8.5c0-1.2,0-2.1-0.1-2.7c0-0.7-0.2-1-0.4-1.1
		c0.3-1.9,1.1-2.8,2.5-2.9h0.3C320.7,0,321.6,0.5,322.2,1.6z M323.5,32.5c0.1,0,0.2,0.1,0.3,0.1c0.5,0,1-0.1,1.8-0.4
		c0.9-0.3,1.4-0.5,1.6-0.8c0.7-0.7,1.4-1.5,2.1-2.5c0.7-0.9,1.3-1.9,1.8-2.9c0.9-1.8,1.5-3.5,1.6-5.1c0-0.2,0-0.4,0.1-0.6
		c0-1.2-0.5-1.8-1.4-1.9h-0.1c-0.8,0-2.1,1.2-4,3.7C325.5,24.7,324.2,28.1,323.5,32.5z"/>
	<path class="st0" d="M367.2,19.2c0.1,0.2,0.2,0.4,0.1,0.6c0,0.2-0.2,0.3-0.4,0.4c-0.8-0.8-1.6-1.3-2.5-1.3c-0.8,0-1.6,0.2-2.5,0.7
		c-1.4,0.9-2.7,2.6-4,5c-1.2,2.4-2.2,4.9-2.9,7.6c-1,3.4-1.5,6.6-1.5,9.4c0,2.8,0.7,4.2,2,4.2c0.6,0,1.3-1,2.2-2.9
		c0.9-2,1.7-4.2,2.6-6.7c1.1-3.1,2.1-6.1,2.9-9c0.8-2.9,1.3-4.5,1.4-4.9c0.3-0.7,1.2-1.1,2.7-1.4c1.5-0.3,2.6-0.1,3.3,0.5
		c0.2,0.1,0.3,0.3,0.3,0.5c0.1,0.2,0.1,0.4,0.1,0.7c-0.3-0.1-0.8,1.1-1.3,3.6c-0.5,2.4-1.1,5.2-1.6,8.4c-0.4,2.5-0.8,5-1.1,7.6
		c-0.4,2.5-0.6,4.6-0.7,6.2c0,0.9,0,1.5,0,2.1c0,0.5,0.1,0.8,0.3,0.8c0.7,0.1,1.7-0.9,3-3.1c1.4-2.2,2.7-4.6,4-7.2
		c1.1-2.1,2.1-4.2,3-6.1c0.9-1.9,1.5-3.1,1.8-3.8c0.3-0.1,0.7-0.1,1-0.1c0.4,0,0.7,0.2,1.1,0.4c-0.3,0.6-0.9,1.9-1.8,4
		c-0.9,2.1-1.9,4.2-3.1,6.6c-1.5,2.9-3.1,5.5-4.7,7.9c-1.6,2.3-3,3.4-4.2,3.4h-0.2c-1.1-0.1-2-0.5-2.6-1.2c-0.6-0.6-1.1-1.5-1.4-2.5
		c-0.3-0.8-0.5-1.7-0.5-2.7c-0.1-1-0.1-2-0.1-3.1c0.1-2,0.3-3.9,0.6-5.8c0.3-1.8,0.5-3.3,0.7-4.4c-0.1,0.5-0.3,1.2-0.6,2.2
		c-0.3,1.1-0.7,2.3-1.2,3.6c-0.8,2-1.6,3.8-2.5,5.6c-1,1.8-1.9,2.7-2.7,2.8c-2.4,0.2-4.7-0.2-6.8-1.4c-2.1-1.2-3.2-3.1-3.3-5.7v-0.8
		c0-3.2,0.5-6.2,1.5-9.2c1.1-3.1,2.4-5.8,4-8c0.9-1.2,1.8-2.2,2.7-3.1c0.9-0.9,1.8-1.5,2.7-2c0.4-0.2,0.9-0.4,1.5-0.5
		c0.6-0.1,1.3-0.2,2-0.3h0.8c1,0,2.1,0.1,3.1,0.4C365.6,17.8,366.6,18.4,367.2,19.2z"/>
	<path class="st0" d="M386.8,22.4c-0.2,0.4-0.7,0.7-1.4,1c-0.8,0.2-1.4,0-1.6-0.7c0-1.1-0.1-2-0.3-2.7c-0.2-0.7-0.5-1.2-0.9-1.5
		c-0.8-0.8-1.8-0.7-2.8,0.1c-1,0.8-1.4,2.2-1.3,4c0.1,0.7,0.3,1.4,0.8,2.1c0.4,0.6,0.9,1.3,1.5,1.8c1.2,1,2.6,2.1,4.3,3
		c1.6,1,3.3,2.1,4.9,3.3c1.3,1,2.4,2.1,3.3,3.4c0.3,0.4,0.6,0.9,0.8,1.4c0.3-0.2,0.6-0.4,0.9-0.5c2.4-1.4,4.1-3.2,5.3-5.5
		c0.4-0.1,0.8-0.2,1.1-0.2c0.3,0,0.7,0.1,1,0.4c-0.4,1-1,1.9-1.6,2.7c-0.6,0.8-1.4,1.5-2.2,2.2c-1.2,1-2.4,2-3.7,2.8
		c0.1,0.5,0.2,0.9,0.3,1.4c0.3,1.6,0.2,3.1-0.1,4.6c-0.3,1.5-0.8,2.8-1.4,4c-0.5,1-1.2,1.9-1.9,2.7c-0.8,0.8-1.6,1.5-2.5,2.1
		c-1.6,1.1-3.3,1.7-5,1.8h-0.4c-1.6,0-3-0.6-4.2-1.7c-1-1-1.2-2.3-0.4-3.7c0.7-1.4,1.9-2.8,3.5-4.4c0.9-0.8,1.8-1.6,2.8-2.5l1.3-1
		c0-0.5-0.1-0.9-0.2-1.3c-0.4-1.6-1.6-3.3-3.6-5.1c-1.9-1.7-3.7-3.6-5.5-5.6c-0.9-1-1.7-2.2-2.3-3.3c-0.6-1.1-1-2.3-1.1-3.6v-0.4
		c0-0.8,0.1-1.5,0.4-2.1c0.3-0.8,0.8-1.5,1.4-2.1c1.1-1.1,2.5-1.9,4.1-2.2c0.5-0.1,0.9-0.2,1.4-0.2c1,0,2,0.3,2.9,0.9
		c0.6,0.5,1.1,1.1,1.6,1.8C386.5,20.3,386.8,21.2,386.8,22.4z M384.7,47.6c-1.5,1.4-2.7,2.6-3.5,3.7c-0.4,0.5-0.7,1-0.8,1.5
		c-0.1,0.4-0.1,0.7,0.2,1c0.6,0.5,1.4,0.3,2.5-0.7c1-1,1.9-2.4,2.7-4.1c0.4-1,0.7-2,0.9-3.1C386,46.4,385.4,47,384.7,47.6z"/>
</g>
<g>
</g>
<g>
</g>
<g>
</g>
<g>
</g>
<g>
</g>
<g>
</g>
<g>
</g>
<g>
</g>
<g>
</g>
<g>
</g>
<g>
</g>
<g>
</g>
<g>
</g>
<g>
</g>
<g>
</g>
</svg>
