<?xml version="1.0" encoding="utf-8"?>
<!-- Generator: Adobe Illustrator 19.1.0, SVG Export Plug-In . SVG Version: 6.00 Build 0)  -->
<svg version="1.1" id="Layer_1" xmlns="http://www.w3.org/2000/svg" xmlns:xlink="http://www.w3.org/1999/xlink" x="0px" y="0px"
	 viewBox="0 0 334 104" style="enable-background:new 0 0 334 104;" xml:space="preserve">
<style type="text/css">
	.st0{fill:#FFFFFF;}
</style>
<g>
	<line x1="10" y1="10" x2="174" y2="94"/>
	<path class="st0" d="M174,104c-1.5,0-3.1-0.4-4.6-1.1l-164-84c-4.9-2.5-6.9-8.5-4.3-13.5c2.5-4.9,8.5-6.9,13.5-4.3l164,84
		c4.9,2.5,6.9,8.5,4.3,13.5C181.1,102,177.6,104,174,104z"/>
</g>
<g>
	<line x1="174" y1="94" x2="324" y2="10"/>
	<path class="st0" d="M174,104c-3.5,0-6.9-1.8-8.7-5.1c-2.7-4.8-1-10.9,3.8-13.6l150-84c4.8-2.7,10.9-1,13.6,3.8
		c2.7,4.8,1,10.9-3.8,13.6l-150,84C177.3,103.6,175.7,104,174,104z"/>
</g>
<g>
</g>
<g>
</g>
<g>
</g>
<g>
</g>
<g>
</g>
<g>
</g>
<g>
</g>
<g>
</g>
<g>
</g>
<g>
</g>
<g>
</g>
<g>
</g>
<g>
</g>
<g>
</g>
<g>
</g>
</svg>
