<?xml version="1.0" encoding="utf-8"?>
<!-- Generator: Adobe Illustrator 19.1.0, SVG Export Plug-In . SVG Version: 6.00 Build 0)  -->
<svg version="1.1" id="Layer_1" xmlns="http://www.w3.org/2000/svg" xmlns:xlink="http://www.w3.org/1999/xlink" x="0px" y="0px"
	 viewBox="-278 244.4 402.4 72.6" style="enable-background:new -278 244.4 402.4 72.6;" xml:space="preserve">
<style type="text/css">
	.st0{fill:#8C6F4B;}
</style>
<g>
	<path class="st0" d="M-269.5,283.3c0.1,2.3,0.5,4.4,1.1,6.2c0.7,1.8,1.7,2.8,3.1,3.1c1.5,0.4,3.3-0.4,5.3-2.3c2-1.8,3.9-4,5.6-6.5
		c0.9-1.4,1.8-2.7,2.5-4c0.8-1.4,1.4-2.6,1.9-3.7c0.4-0.3,0.7-0.5,1.1-0.4c0.4,0,0.7,0.3,1.1,0.6c-0.6,1.2-1.3,2.6-2.1,4.1
		c-0.8,1.5-1.7,2.9-2.7,4.4c-1.8,2.8-3.9,5.2-6.3,7.2c-2,1.6-4,2.5-6.1,2.5c-0.4,0-0.8,0-1.3-0.1c-2.2-0.4-4.1-1.2-5.7-2.4
		c-1.5-1.2-2.8-2.6-3.8-4.4c-1.4-2.9-2.2-6.2-2.2-10v-1c0.2-4.2,1.2-8,3-11.3c0.8-1.5,1.8-2.6,2.8-3.4s2-1.3,3.1-1.6
		c0.5-0.1,0.9-0.1,1.4-0.1c1.4,0,2.6,0.5,3.8,1.5c1.5,1.4,2.3,3.3,2.4,5.8c0,4-1.2,7-3.8,9.2c-1.2,1-2.6,1.9-4.1,2.6v0.1
		C-269.5,280.7-269.5,282-269.5,283.3z M-266,274.6c1.8-2.1,2.8-4.4,2.8-6.6c0-2.3-0.4-3.5-1.3-3.8c-0.8-0.2-1.7,0.8-2.5,3.1
		c-0.9,2.3-1.5,4.9-2,8c-0.1,0.7-0.2,1.4-0.3,2.1C-267.9,276.5-266.8,275.6-266,274.6z"/>
	<path class="st0" d="M-243.1,268.3c0.7-1,1.7-2.4,2.9-4.2c1.3-1.6,2.6-2.5,4-2.5h0.1c1.4,0,2.5,0.5,3.4,1.6
		c0.9,1.1,1.6,2.3,2.1,3.6c0.2,0.7,0.4,1.5,0.6,2.2c0.1,0.7,0.2,1.3,0.3,1.9c0.5-1.6,1.5-3.3,3.3-5.2c1.7-1.9,3.6-2.8,5.5-2.7
		c1.6,0,2.8,1,3.4,2.9c0.6,1.8,1,4.1,1.1,6.8c0,1.4,0,2.9-0.1,4.5c-0.1,1.5-0.2,3.1-0.3,4.6c-0.3,3.6-0.6,6.8-0.9,9.7
		c-0.3,2.8-0.1,4.3,0.5,4.4c0.7,0.2,1.9-0.8,3.5-3c1.5-2.2,3.1-4.7,4.7-7.5c0.8-1.5,1.6-2.9,2.4-4.4c0.8-1.5,1.4-2.8,2-4
		c0.4-0.2,0.7-0.3,1.1-0.3s0.7,0.2,1,0.4c-0.8,1.9-2,4.3-3.6,7.4c-1.5,3.1-3.2,5.8-5,8.1c-1.2,1.6-2.3,2.9-3.5,3.9
		c-1,0.8-1.8,1.2-2.7,1.2c-0.2,0-0.4,0-0.6-0.1c-2.1-0.5-3.4-2.1-3.9-5.1s-0.7-6.2-0.5-9.8c0-1.5,0.1-3.1,0.3-4.6
		c0.1-1.5,0.3-3,0.4-4.4c0.2-2.6,0.4-4.8,0.4-6.6c0-1.7-0.2-2.6-0.8-2.7c-1.1,0-2.4,1-4,3c-1.5,2.1-2.5,4.3-2.9,6.6
		c-0.1,1.9-0.1,3.8-0.1,5.7s0,3.3-0.2,4.2c-0.3,0.8-1.3,1.2-3,1.2s-2.8-0.5-3.3-1.6c0-1.3,0-2.8,0.1-4.6c0-1.8,0-3.6,0.1-5.4
		c0-2.7-0.1-5.2-0.3-7.3c-0.2-2.2-0.6-3.3-1.2-3.3c-0.5,0-1.2,0.5-2.1,1.4c-0.9,0.9-1.6,1.9-2.3,3.1c-0.5,0.8-0.8,1.5-1.2,2.2
		c-0.3,0.7-0.5,1.3-0.5,1.8c0.3,2.7,0.5,5.7,0.5,8.7v8.4c-1,1.9-2.3,3-3.8,3.1c-1.5,0.2-2.7-0.3-3.4-1.6c-0.3-1.5-0.4-3.1-0.4-5
		c0-1.9,0-3.9,0.1-5.9c0.2-3.7,0.4-7.3,0.5-10.6c0.2-3.3-0.1-5.3-1-6.2v-0.1c0-0.7,0.4-1,1.3-1c0.9,0,1.8,0.5,2.9,1.4
		c0.5,0.5,1.1,1.2,1.6,2.1C-244,266.1-243.5,267.1-243.1,268.3z"/>
	<path class="st0" d="M-204.1,265.5c0.3-0.9,1.1-1.6,2.3-2.1c0.6-0.2,1.2-0.3,1.7-0.3s1,0.1,1.4,0.3c0.3,0.2,0.5,0.4,0.7,0.7
		c0.1,0.3,0.2,0.6,0.2,1c0,0.2-0.3,1.6-0.7,4.2s-0.8,5.5-1.1,8.8c-0.3,2.6-0.5,5.2-0.7,7.7c-0.2,2.6-0.2,4.6-0.1,6.2
		c0,0.9,0.2,1.6,0.3,2.1c0.2,0.5,0.4,0.8,0.8,0.8c0.7,0,2-1.1,3.7-3.5s3.4-4.9,5.1-7.6c1-1.8,2-3.4,2.9-4.9s1.4-2.6,1.7-3.1
		c0.4-0.2,0.7-0.2,1.1-0.2c0.3,0,0.7,0.2,1,0.5c-0.1,0.3-0.4,0.8-0.7,1.4c-0.3,0.6-0.7,1.4-1.2,2.2c-0.9,1.5-1.9,3.3-3.1,5.3
		s-2.4,3.9-3.7,5.6c-1.3,1.8-2.6,3.3-3.8,4.6c-1.2,1.1-2.2,1.7-3.1,1.7h-0.2c-1.6-0.1-2.9-0.6-3.9-1.5s-1.7-2.1-2.1-3.5
		c-0.5-1.5-0.7-3.2-0.8-5.1V286c0-1.6,0.1-3.3,0.3-5c0.4-3.6,0.9-7,1.6-10.2C-203.8,268-203.7,266.1-204.1,265.5z M-203.6,252.1
		c0-0.1-0.1-0.2-0.1-0.3c0-0.7,0.4-1.5,1.1-2.3c0.8-1,1.8-1.4,2.8-1.4c0.2,0.7,0.8,1.2,1.6,1.5c0.9,0.2,1.4,0.8,1.4,1.7v0.1
		c0,0.7-0.2,1.5-0.7,2.4c-0.5,1-1.2,1.5-2.1,1.6c-0.1,0-0.3,0.1-0.4,0.1c-0.9,0-1.6-0.4-2.3-1.1C-203,253.5-203.5,252.7-203.6,252.1
		z"/>
	<path class="st0" d="M-180,274c-0.2,1.9-0.3,3.7-0.4,5.4c-0.1,1.7-0.1,3.4-0.1,5c0,2.9,0.1,5.3,0.4,7.2c0.3,2,0.9,3.1,1.6,3.3
		c0.9,0.3,2.2-0.5,3.8-2.6c1.6-2,3.2-4.3,4.8-6.8c1-1.7,2-3.3,2.9-4.9c0.9-1.6,1.5-2.9,2-3.8c0.4-0.2,0.7-0.3,1.1-0.3
		s0.7,0.2,1.1,0.5c-0.5,1.1-1.3,2.6-2.1,4.3c-0.9,1.8-1.8,3.6-2.9,5.4c-1.6,2.7-3.4,5.2-5.4,7.2c-1.6,1.7-3.3,2.5-4.9,2.5
		c-0.4,0-0.8,0-1.2-0.1c-1.3-0.3-2.5-0.9-3.4-1.8s-1.7-2.1-2.3-3.5c-1.1-2.6-1.8-5.7-2-9.5v-2.4c0-3,0.2-6.1,0.6-9.3
		c0.6-4.1,1.5-8,2.6-11.8c1.1-3.8,2.4-6.9,3.8-9.4c0.7-0.9,1.7-1.5,2.9-1.8c1-0.3,1.9-0.4,2.5-0.4h0.4c2,0.2,3.1,1.8,3.4,4.7
		c0.3,3-0.1,6.2-1.2,9.7c-0.6,1.9-1.4,3.8-2.3,5.5c-0.9,1.7-2.1,3.3-3.3,4.6c-0.7,0.8-1.5,1.5-2.3,2.1C-180,273.5-180,273.7-180,274
		z M-179.3,270c0.9-1,1.7-2.2,2.5-3.6c0.7-1.3,1.4-2.7,1.9-4.2c0.5-1.2,0.8-2.4,1.1-3.6c0.3-1.2,0.5-2.3,0.7-3.4
		c0.3-2.1,0.4-3.8,0.3-5.2c-0.1-1.4-0.5-2.2-1-2.3c-0.7-0.1-1.4,1.1-2.2,3.6c-0.8,2.6-1.5,5.7-2.2,9.5c-0.3,2-0.6,4.1-1,6.4
		c-0.1,1-0.3,2.1-0.4,3.1C-179.5,270.3-179.4,270.2-179.3,270z"/>
	<path class="st0" d="M-134,276.7c0.3-0.2,0.7-0.3,1.1-0.3c0.4,0,0.7,0.2,1.1,0.6c-1.2,2.3-2.5,4.3-3.8,6.2
		c-1.3,1.8-2.5,3.4-3.8,4.8c-1.9,2.1-3.6,3.7-5.2,5.1c-0.1,2.9-0.4,5.8-0.7,8.7c-0.5,4.4-1.4,7.9-2.7,10.7c-0.8,1.5-1.7,2.7-2.7,3.5
		c-1,0.8-2.3,1.2-3.7,1.2h-0.1c-0.7,0-1.3-0.2-1.8-0.5c-0.5-0.4-0.9-0.8-1.2-1.4c-0.7-1.5-0.8-3.7-0.3-6.4c0.5-2.7,1.4-5.2,2.6-7.6
		c0.7-1.3,1.4-2.5,2.2-3.5s1.6-1.8,2.5-2.4c0.1-0.1,0.3-0.2,0.4-0.3c0-1.6,0.1-3.2,0.1-4.8c0-2.7,0.1-4.8,0.1-6.4
		c-0.5,2.5-1.3,4.6-2.5,6.2c-1.2,1.6-2.6,2.5-4.1,2.5c-3.3,0-5.6-2.2-6.9-6.6c-1-3.3-1.5-8.2-1.5-14.6c0-2.2,0-4.6,0.1-7.1
		c0.3-1.4,1.2-2.2,2.8-2.6c0.2,0,0.5-0.1,0.7-0.1c1.3,0,2.4,0.8,3.1,2.5c-0.3,1.7-0.6,3.7-0.9,6.1c-0.3,2.4-0.5,4.8-0.6,7.2
		c-0.1,3.6,0,6.8,0.5,9.6c0.5,2.8,1.6,4.2,3.4,4.2c1.1,0,2.2-1.3,3.2-3.9s1.9-5.4,2.5-8.6c0.4-2.1,0.7-4.2,0.9-6.3
		c0.2-2.1,0.3-3.9,0.1-5.3c0.1-0.6,0.2-1.1,0.4-1.4c0.2-0.4,0.5-0.6,0.8-0.8c0.7-0.4,1.5-0.3,2.3,0.2c0.9,0.5,1.4,1.2,1.5,2
		c-0.4,0.1-0.6,1.1-0.6,3.1s0,4.5,0,7.6c0,1.6,0.1,3.4,0.1,5.3v5.3c0,0.6,0,1.3-0.1,1.9c1.5-1.4,3.1-3.1,4.8-5
		C-137.5,282.8-135.6,279.9-134,276.7z M-152.3,300.9c-0.6,1.7-1.2,3.5-1.6,5.4c-0.5,2.3-0.9,4.4-1,6.4c-0.1,1.9,0.1,2.9,0.7,2.9
		c0.4,0,0.8-0.3,1.1-0.8c0.4-0.5,0.7-1.2,1-2.1c0.5-1.6,0.9-3.7,1.2-6.4c0.3-2.6,0.5-5.3,0.7-8.1l0.1-1l-0.1,0.1
		C-151,298-151.6,299.2-152.3,300.9z"/>
	<path class="st0" d="M-103.2,274c-0.2,1.9-0.3,3.7-0.4,5.4c-0.1,1.7-0.1,3.4-0.1,5c0,2.9,0.1,5.3,0.4,7.2c0.3,2,0.9,3.1,1.6,3.3
		c0.9,0.3,2.2-0.5,3.8-2.6c1.6-2,3.2-4.3,4.8-6.8c1-1.7,2-3.3,2.9-4.9s1.5-2.9,2-3.8c0.4-0.2,0.7-0.3,1.1-0.3c0.4,0,0.7,0.2,1.1,0.5
		c-0.5,1.1-1.3,2.6-2.1,4.3c-0.9,1.8-1.8,3.6-2.9,5.4c-1.6,2.7-3.4,5.2-5.4,7.2c-1.6,1.7-3.3,2.5-4.9,2.5c-0.4,0-0.8,0-1.2-0.1
		c-1.3-0.3-2.5-0.9-3.4-1.8s-1.7-2.1-2.3-3.5c-1.1-2.6-1.8-5.7-2-9.5v-2.4c0-3,0.2-6.1,0.6-9.3c0.6-4.1,1.5-8,2.6-11.8
		c1.1-3.8,2.4-6.9,3.8-9.4c0.7-0.9,1.7-1.5,2.9-1.8c1-0.3,1.9-0.4,2.5-0.4h0.4c2,0.2,3.1,1.8,3.4,4.7c0.3,3-0.1,6.2-1.2,9.7
		c-0.6,1.9-1.4,3.8-2.3,5.5c-0.9,1.7-2.1,3.3-3.3,4.6c-0.7,0.8-1.5,1.5-2.3,2.1C-103.2,273.5-103.2,273.7-103.2,274z M-102.5,270
		c0.9-1,1.7-2.2,2.5-3.6c0.7-1.3,1.4-2.7,1.9-4.2c0.5-1.2,0.8-2.4,1.1-3.6c0.3-1.2,0.5-2.3,0.7-3.4c0.3-2.1,0.4-3.8,0.3-5.2
		c-0.1-1.4-0.5-2.2-1-2.3c-0.7-0.1-1.4,1.1-2.2,3.6c-0.8,2.6-1.5,5.7-2.2,9.5c-0.3,2-0.6,4.1-1,6.4c-0.1,1-0.3,2.1-0.4,3.1
		C-102.8,270.3-102.7,270.2-102.5,270z"/>
	<path class="st0" d="M-68.1,263.6c0.1,0.2,0.2,0.4,0.1,0.6c0,0.2-0.2,0.3-0.4,0.4c-0.8-0.8-1.6-1.3-2.5-1.3c-0.8,0-1.6,0.2-2.5,0.7
		c-1.4,0.9-2.7,2.6-4,5c-1.2,2.4-2.2,4.9-2.9,7.6c-1,3.4-1.5,6.6-1.5,9.4c0,2.8,0.7,4.2,2,4.2c0.6,0,1.3-1,2.2-2.9
		c0.9-2,1.7-4.2,2.6-6.7c1.1-3.1,2.1-6.1,2.9-9c0.8-2.9,1.3-4.5,1.4-4.9c0.3-0.7,1.2-1.1,2.7-1.4s2.6-0.1,3.3,0.5
		c0.2,0.1,0.3,0.3,0.3,0.5c0.1,0.2,0.1,0.4,0.1,0.7c-0.3-0.1-0.8,1.1-1.3,3.6c-0.5,2.4-1.1,5.2-1.6,8.4c-0.4,2.5-0.8,5-1.1,7.6
		c-0.4,2.5-0.6,4.6-0.7,6.2c0,0.9,0,1.5,0,2.1c0,0.5,0.1,0.8,0.3,0.8c0.7,0.1,1.7-0.9,3-3.1c1.4-2.2,2.7-4.6,4-7.2
		c1.1-2.1,2.1-4.2,3-6.1s1.5-3.1,1.8-3.8c0.3-0.1,0.7-0.1,1-0.1c0.4,0,0.7,0.2,1.1,0.4c-0.3,0.6-0.9,1.9-1.8,4
		c-0.9,2.1-1.9,4.2-3.1,6.6c-1.5,2.9-3.1,5.5-4.7,7.9c-1.6,2.3-3,3.4-4.2,3.4h-0.2c-1.1-0.1-2-0.5-2.6-1.2c-0.6-0.6-1.1-1.5-1.4-2.5
		c-0.3-0.8-0.5-1.7-0.5-2.7c-0.1-1-0.1-2-0.1-3.1c0.1-2,0.3-3.9,0.6-5.8c0.3-1.8,0.5-3.3,0.7-4.4c-0.1,0.5-0.3,1.2-0.6,2.2
		c-0.3,1.1-0.7,2.3-1.2,3.6c-0.8,2-1.6,3.8-2.5,5.6c-1,1.8-1.9,2.7-2.7,2.8c-2.4,0.2-4.7-0.2-6.8-1.4s-3.2-3.1-3.3-5.7v-0.8
		c0-3.2,0.5-6.2,1.5-9.2c1.1-3.1,2.4-5.8,4-8c0.9-1.2,1.8-2.2,2.7-3.1c0.9-0.9,1.8-1.5,2.7-2c0.4-0.2,0.9-0.4,1.5-0.5
		c0.6-0.1,1.3-0.2,2-0.3h0.8c1,0,2.1,0.1,3.1,0.4C-69.7,262.2-68.7,262.8-68.1,263.6z"/>
	<path class="st0" d="M-51.3,267c0.3,1.2,0.6,2.6,0.9,4.1c0.3,1.5,0.6,3.1,0.9,4.6c0.6,3,1.1,5.7,1.6,8.1c0.5,2.4,0.9,3.7,1.2,3.8
		c0.2-0.2,0.8-1.7,1.7-4.6s2-6.2,3.1-9.7c0.6-2,1.2-3.9,1.9-5.7c0.7-1.9,1.3-3.5,1.9-5c0.2-0.5,0.5-0.7,0.8-0.7c0.1,0,0.3,0,0.5,0.1
		c0.4,0.1,0.6,0.3,0.6,0.6c0,0.1-0.1,0.3-0.2,0.5c-1.5,4.6-3.1,9.4-4.6,14.2c-1.5,4.8-3.1,9.4-4.9,13.8c-0.6,1.5-1.8,2.5-3.4,3.1
		c-0.5,0.2-0.9,0.3-1.2,0.3c-1,0-1.7-0.6-2.1-1.9c-0.5-1.5-1.1-3.1-1.6-5c-0.5-1.9-1-3.8-1.4-5.7c-0.9-3.7-1.7-7.2-2.5-10.5
		c-0.8-3.3-1.6-5.5-2.4-6.5c0.3-0.7,0.7-1.3,1.2-1.6s1-0.5,1.6-0.6c1.3-0.1,2.6,0.4,4,1.4C-52.5,265.1-51.7,266.1-51.3,267z"/>
	<path class="st0" d="M-32.2,265.5c0.3-0.9,1.1-1.6,2.3-2.1c0.6-0.2,1.2-0.3,1.7-0.3s1,0.1,1.4,0.3c0.3,0.2,0.5,0.4,0.7,0.7
		c0.1,0.3,0.2,0.6,0.2,1c0,0.2-0.3,1.6-0.7,4.2s-0.8,5.5-1.1,8.8c-0.3,2.6-0.5,5.2-0.7,7.7c-0.2,2.6-0.2,4.6-0.1,6.2
		c0,0.9,0.2,1.6,0.3,2.1c0.2,0.5,0.4,0.8,0.8,0.8c0.7,0,2-1.1,3.7-3.5s3.4-4.9,5.1-7.6c1-1.8,2-3.4,2.9-4.9s1.4-2.6,1.7-3.1
		c0.4-0.2,0.7-0.2,1.1-0.2c0.3,0,0.7,0.2,1,0.5c-0.1,0.3-0.4,0.8-0.7,1.4c-0.3,0.6-0.7,1.4-1.2,2.2c-0.9,1.5-1.9,3.3-3.1,5.3
		s-2.4,3.9-3.7,5.6c-1.3,1.8-2.6,3.3-3.8,4.6c-1.2,1.1-2.2,1.7-3.1,1.7h-0.2c-1.6-0.1-2.9-0.6-3.9-1.5s-1.7-2.1-2.1-3.5
		c-0.5-1.5-0.7-3.2-0.8-5.1V286c0-1.6,0.1-3.3,0.3-5c0.4-3.6,0.9-7,1.6-10.2C-31.9,268-31.8,266.1-32.2,265.5z M-31.6,252.1
		c0-0.1-0.1-0.2-0.1-0.3c0-0.7,0.4-1.5,1.1-2.3c0.8-1,1.8-1.4,2.8-1.4c0.2,0.7,0.8,1.2,1.6,1.5c0.9,0.2,1.4,0.8,1.4,1.7v0.1
		c0,0.7-0.2,1.5-0.7,2.4c-0.5,1-1.2,1.5-2.1,1.6c-0.1,0-0.3,0.1-0.4,0.1c-0.9,0-1.6-0.4-2.3-1.1C-31.1,253.5-31.5,252.7-31.6,252.1z
		"/>
	<path class="st0" d="M-9.7,260.2c0.5,0,0.9,0.3,1.2,0.7c0.3,0.4,0.6,0.9,0.8,1.6c0.4,1.2,0.6,2.8,0.6,4.6c0,1.8,0.1,3.6,0.2,5.3
		c0.3-1,0.9-2.5,1.8-4.2c0.9-1.7,2-3.2,3.3-4.5c0.7-0.7,1.4-1.2,2.2-1.6c0.7-0.4,1.5-0.6,2.3-0.5c1.9,0.1,3.1,1.7,3.6,4.6
		c0.5,2.9,0.6,6.2,0.4,9.8c-0.1,1.6-0.2,3.2-0.3,4.8c-0.1,1.6-0.3,3.1-0.4,4.6c-0.3,2.7-0.5,5.1-0.7,7s0,2.9,0.3,3
		c0.9,0.3,2.1-0.6,3.6-2.7s2.9-4.3,4.3-6.8c0.9-1.7,1.8-3.3,2.5-4.9c0.8-1.5,1.4-2.8,1.8-3.7c0.4-0.2,0.7-0.3,1.1-0.3
		s0.8,0.1,1.2,0.5c-0.5,1-1.1,2.3-1.8,4c-0.8,1.7-1.7,3.5-2.7,5.4c-1.5,2.8-3.3,5.3-5.1,7.6c-1.5,1.9-3.1,2.9-4.5,2.9
		c-0.2,0-0.5,0-0.8-0.1c-1-0.3-1.9-0.8-2.5-1.6c-0.7-0.8-1.2-1.8-1.6-2.9c-0.6-1.9-1-4.1-1-6.6c0-2.6,0-5.1,0.3-7.8
		c0.4-3.9,0.8-7.4,1.2-10.5c0.5-3.1,0.5-4.7,0.1-4.7c-0.8,0-1.7,0.6-2.7,1.9c-1.1,1.3-2.1,2.8-3,4.6c-0.5,0.9-1,1.8-1.4,2.7
		c-0.4,1-0.8,1.8-1,2.7c0,0.9-0.1,1.8-0.1,2.8s-0.1,2-0.1,2.9c-0.1,1.8-0.2,3.5-0.3,4.9c-0.1,1.5-0.3,2.5-0.5,2.9
		c-1.2,1.2-2.5,2.1-3.8,2.5c-1.4,0.5-2.6-0.3-3.6-2.4c-0.1-1-0.1-2-0.1-3.1c0-1,0-1.9,0.1-2.9c0.1-2.1,0.3-4.1,0.6-6
		c0.5-3.6,1-6.8,1.4-9.6c0.4-2.8,0.2-4.6-0.6-5.2c0.5-0.7,1-1.2,1.8-1.5c0.5-0.2,1.1-0.3,1.6-0.3C-10.1,260.1-9.9,260.1-9.7,260.2z"
		/>
	<path class="st0" d="M24.8,266.8c-0.2,0.4-0.7,0.7-1.4,1c-0.8,0.2-1.4,0-1.6-0.7c0-1.1-0.1-2-0.3-2.7c-0.2-0.7-0.5-1.2-0.9-1.5
		c-0.8-0.8-1.8-0.7-2.8,0.1c-1,0.8-1.4,2.2-1.3,4c0.1,0.7,0.3,1.4,0.8,2.1c0.4,0.6,0.9,1.3,1.5,1.8c1.2,1,2.6,2.1,4.3,3
		c1.6,1,3.3,2.1,4.9,3.3c1.3,1,2.4,2.1,3.3,3.4c0.3,0.4,0.6,0.9,0.8,1.4c0.3-0.2,0.6-0.4,0.9-0.5c2.4-1.4,4.1-3.2,5.3-5.5
		c0.4-0.1,0.8-0.2,1.1-0.2c0.3,0,0.7,0.1,1,0.4c-0.4,1-1,1.9-1.6,2.7s-1.4,1.5-2.2,2.2c-1.2,1-2.4,2-3.7,2.8
		c0.1,0.5,0.2,0.9,0.3,1.4c0.3,1.6,0.2,3.1-0.1,4.6c-0.3,1.5-0.8,2.8-1.4,4c-0.5,1-1.2,1.9-1.9,2.7c-0.8,0.8-1.6,1.5-2.5,2.1
		c-1.6,1.1-3.3,1.7-5,1.8h-0.4c-1.6,0-3-0.6-4.2-1.7c-1-1-1.2-2.3-0.4-3.7c0.7-1.4,1.9-2.8,3.5-4.4c0.9-0.8,1.8-1.6,2.8-2.5l1.3-1
		c0-0.5-0.1-0.9-0.2-1.3c-0.4-1.6-1.6-3.3-3.6-5.1c-1.9-1.7-3.7-3.6-5.5-5.6c-0.9-1-1.7-2.2-2.3-3.3c-0.6-1.1-1-2.3-1.1-3.6v-0.4
		c0-0.8,0.1-1.5,0.4-2.1c0.3-0.8,0.8-1.5,1.4-2.1c1.1-1.1,2.5-1.9,4.1-2.2c0.5-0.1,0.9-0.2,1.4-0.2c1,0,2,0.3,2.9,0.9
		c0.6,0.5,1.1,1.1,1.6,1.8C24.5,264.7,24.7,265.6,24.8,266.8z M22.7,292c-1.5,1.4-2.7,2.6-3.5,3.7c-0.4,0.5-0.7,1-0.8,1.5
		c-0.1,0.4-0.1,0.7,0.2,1c0.6,0.5,1.4,0.3,2.5-0.7c1-1,1.9-2.4,2.7-4.1c0.4-1,0.7-2,0.9-3.1C24,290.8,23.4,291.4,22.7,292z"/>
	<path class="st0" d="M44.2,246c0.4,0.4,0.7,1.7,0.8,3.8c0.1,2.2,0.1,4.6,0.1,7.2c0,3.2-0.1,6.3-0.2,9.2c0,2.8,0,4.3,0.1,4.4
		c0.1-0.4,0.5-1.3,1.2-2.6c0.6-1.4,1.4-2.7,2.4-4c0.5-0.7,1.1-1.3,1.8-1.9c0.6-0.5,1.3-1,2.1-1.2c1.6-0.5,3.3-0.5,5.1,0
		c1.8,0.5,2.7,1.9,2.7,4.2v0.1c0,1.1-0.2,2.1-0.7,3.1s-1,2.1-1.8,3c-1.7,2.2-3.8,4.1-6.3,5.5c0.5,0.5,1,1.3,1.4,2.3
		c0.5,1.5,0.9,3.1,1.2,4.9c0.5,2.8,0.8,5.5,1,8.1c0.3,2.6,0.8,4,1.6,4.2c0.6,0.2,1.8-0.9,3.3-3.2c1.6-2.3,3.2-4.8,4.7-7.5
		c1-1.8,2-3.5,2.8-5.1c0.9-1.6,1.5-2.8,1.8-3.6c0.4-0.1,0.8-0.1,1.2-0.1c0.4,0,0.7,0.2,1,0.5c-0.5,1.2-1.2,2.7-2.1,4.5
		c-0.9,1.8-1.9,3.7-3.1,5.5c-1.6,2.8-3.4,5.3-5.3,7.5c-1.7,2.1-3.1,3.1-4.4,3.1c-0.1,0-0.2,0-0.3-0.1c-1.2-0.2-2.1-0.7-2.9-1.5
		c-0.7-0.8-1.3-1.8-1.8-3c-0.7-1.8-1.2-3.8-1.5-6c-0.3-2.2-0.7-4.1-1.2-5.7c-0.3-0.9-0.6-1.7-1-2.3c-0.2-0.3-0.4-0.5-0.5-0.7
		c-0.7,0.2-1.3,0.2-1.7,0.1c0,0.8,0,1.7,0.1,2.7l0.3,2.7c0.2,1.8,0.3,3.4,0.5,4.9s0.1,2.6-0.2,3.2c-0.4,0.5-1.2,0.8-2.4,1
		c-0.5,0.1-0.9,0.1-1.2,0.1c-0.8,0-1.5-0.2-2.1-0.5c-0.4-0.2-0.8-0.5-1.1-0.9c-0.3-0.4-0.5-0.8-0.6-1.4c-0.3-3-0.5-6.2-0.5-9.7v-1.4
		c0-3,0-5.9,0.1-8.7c0.1-4.1,0.3-7.8,0.5-11.3s0.3-6.3,0.3-8.5c0-1.2,0-2.1-0.1-2.7c0-0.7-0.2-1-0.4-1.1c0.3-1.9,1.1-2.8,2.5-2.9
		h0.3C42.7,244.4,43.6,244.9,44.2,246z M45.5,276.9c0.1,0,0.2,0.1,0.3,0.1c0.5,0,1-0.1,1.8-0.4c0.9-0.3,1.4-0.5,1.6-0.8
		c0.7-0.7,1.4-1.5,2.1-2.5c0.7-0.9,1.3-1.9,1.8-2.9c0.9-1.8,1.5-3.5,1.6-5.1c0-0.2,0-0.4,0.1-0.6c0-1.2-0.5-1.8-1.4-1.9h-0.1
		c-0.8,0-2.1,1.2-4,3.7C47.5,269.1,46.2,272.5,45.5,276.9z"/>
	<path class="st0" d="M89.2,263.6c0.1,0.2,0.2,0.4,0.1,0.6c0,0.2-0.2,0.3-0.4,0.4c-0.8-0.8-1.6-1.3-2.5-1.3c-0.8,0-1.6,0.2-2.5,0.7
		c-1.4,0.9-2.7,2.6-4,5c-1.2,2.4-2.2,4.9-2.9,7.6c-1,3.4-1.5,6.6-1.5,9.4c0,2.8,0.7,4.2,2,4.2c0.6,0,1.3-1,2.2-2.9
		c0.9-2,1.7-4.2,2.6-6.7c1.1-3.1,2.1-6.1,2.9-9c0.8-2.9,1.3-4.5,1.4-4.9c0.3-0.7,1.2-1.1,2.7-1.4s2.6-0.1,3.3,0.5
		c0.2,0.1,0.3,0.3,0.3,0.5c0.1,0.2,0.1,0.4,0.1,0.7c-0.3-0.1-0.8,1.1-1.3,3.6c-0.5,2.4-1.1,5.2-1.6,8.4c-0.4,2.5-0.8,5-1.1,7.6
		c-0.4,2.5-0.6,4.6-0.7,6.2c0,0.9,0,1.5,0,2.1c0,0.5,0.1,0.8,0.3,0.8c0.7,0.1,1.7-0.9,3-3.1c1.4-2.2,2.7-4.6,4-7.2
		c1.1-2.1,2.1-4.2,3-6.1s1.5-3.1,1.8-3.8c0.3-0.1,0.7-0.1,1-0.1c0.4,0,0.7,0.2,1.1,0.4c-0.3,0.6-0.9,1.9-1.8,4s-1.9,4.2-3.1,6.6
		c-1.5,2.9-3.1,5.5-4.7,7.9c-1.6,2.3-3,3.4-4.2,3.4h-0.2c-1.1-0.1-2-0.5-2.6-1.2c-0.6-0.6-1.1-1.5-1.4-2.5c-0.3-0.8-0.5-1.7-0.5-2.7
		c-0.1-1-0.1-2-0.1-3.1c0.1-2,0.3-3.9,0.6-5.8c0.3-1.8,0.5-3.3,0.7-4.4c-0.1,0.5-0.3,1.2-0.6,2.2c-0.3,1.1-0.7,2.3-1.2,3.6
		c-0.8,2-1.6,3.8-2.5,5.6c-1,1.8-1.9,2.7-2.7,2.8c-2.4,0.2-4.7-0.2-6.8-1.4c-2.1-1.2-3.2-3.1-3.3-5.7v-0.8c0-3.2,0.5-6.2,1.5-9.2
		c1.1-3.1,2.4-5.8,4-8c0.9-1.2,1.8-2.2,2.7-3.1c0.9-0.9,1.8-1.5,2.7-2c0.4-0.2,0.9-0.4,1.5-0.5c0.6-0.1,1.3-0.2,2-0.3h0.8
		c1,0,2.1,0.1,3.1,0.4C87.6,262.2,88.6,262.8,89.2,263.6z"/>
	<path class="st0" d="M108.8,266.8c-0.2,0.4-0.7,0.7-1.4,1c-0.8,0.2-1.4,0-1.6-0.7c0-1.1-0.1-2-0.3-2.7c-0.2-0.7-0.5-1.2-0.9-1.5
		c-0.8-0.8-1.8-0.7-2.8,0.1c-1,0.8-1.4,2.2-1.3,4c0.1,0.7,0.3,1.4,0.8,2.1c0.4,0.6,0.9,1.3,1.5,1.8c1.2,1,2.6,2.1,4.3,3
		c1.6,1,3.3,2.1,4.9,3.3c1.3,1,2.4,2.1,3.3,3.4c0.3,0.4,0.6,0.9,0.8,1.4c0.3-0.2,0.6-0.4,0.9-0.5c2.4-1.4,4.1-3.2,5.3-5.5
		c0.4-0.1,0.8-0.2,1.1-0.2c0.3,0,0.7,0.1,1,0.4c-0.4,1-1,1.9-1.6,2.7s-1.4,1.5-2.2,2.2c-1.2,1-2.4,2-3.7,2.8
		c0.1,0.5,0.2,0.9,0.3,1.4c0.3,1.6,0.2,3.1-0.1,4.6c-0.3,1.5-0.8,2.8-1.4,4c-0.5,1-1.2,1.9-1.9,2.7c-0.8,0.8-1.6,1.5-2.5,2.1
		c-1.6,1.1-3.3,1.7-5,1.8h-0.4c-1.6,0-3-0.6-4.2-1.7c-1-1-1.2-2.3-0.4-3.7c0.7-1.4,1.9-2.8,3.5-4.4c0.9-0.8,1.8-1.6,2.8-2.5l1.3-1
		c0-0.5-0.1-0.9-0.2-1.3c-0.4-1.6-1.6-3.3-3.6-5.1c-1.9-1.7-3.7-3.6-5.5-5.6c-0.9-1-1.7-2.2-2.3-3.3c-0.6-1.1-1-2.3-1.1-3.6v-0.4
		c0-0.8,0.1-1.5,0.4-2.1c0.3-0.8,0.8-1.5,1.4-2.1c1.1-1.1,2.5-1.9,4.1-2.2c0.5-0.1,0.9-0.2,1.4-0.2c1,0,2,0.3,2.9,0.9
		c0.6,0.5,1.1,1.1,1.6,1.8C108.5,264.7,108.8,265.6,108.8,266.8z M106.7,292c-1.5,1.4-2.7,2.6-3.5,3.7c-0.4,0.5-0.7,1-0.8,1.5
		c-0.1,0.4-0.1,0.7,0.2,1c0.6,0.5,1.4,0.3,2.5-0.7c1-1,1.9-2.4,2.7-4.1c0.4-1,0.7-2,0.9-3.1C108,290.8,107.4,291.4,106.7,292z"/>
</g>
</svg>
