<?xml version="1.0" encoding="utf-8"?>
<!-- Generator: Adobe Illustrator 19.1.0, SVG Export Plug-In . SVG Version: 6.00 Build 0)  -->
<svg version="1.1" id="Layer_1" xmlns="http://www.w3.org/2000/svg" xmlns:xlink="http://www.w3.org/1999/xlink" x="0px" y="0px"
	 viewBox="0 0 150 43.9" style="enable-background:new 0 0 150 43.9;" xml:space="preserve">
<style type="text/css">
	.st0{opacity:0.4;}
	.st1{fill:#8C6F4B;}
</style>
<g class="st0">
	<path class="st1" d="M74.2,43.9c-1,0-2-0.2-2.9-0.6L4.3,13.9C0.7,12.3-1,8,0.6,4.3C2.2,0.7,6.5-1,10.2,0.6L77.1,30
		c3.7,1.6,5.3,5.9,3.7,9.6C79.6,42.3,77,43.9,74.2,43.9z"/>
	<path class="st1" d="M74.2,43.9c-2.8,0-5.5-1.6-6.7-4.4c-1.6-3.7,0.1-8,3.8-9.5l68.6-29.4c3.7-1.6,8,0.1,9.5,3.8
		c1.6,3.7-0.1,8-3.8,9.5L77,43.3C76.1,43.7,75.1,43.9,74.2,43.9z"/>
</g>
<g>
</g>
<g>
</g>
<g>
</g>
<g>
</g>
<g>
</g>
<g>
</g>
<g>
</g>
<g>
</g>
<g>
</g>
<g>
</g>
<g>
</g>
<g>
</g>
<g>
</g>
<g>
</g>
<g>
</g>
</svg>
