<svg xmlns="http://www.w3.org/2000/svg" viewBox="0 201.2 200 158.8" enable-background="new 0 201.2 200 158.8"><style type="text/css">.st0{fill:#F9F9F9;} .st1{fill:#231F20;} .st2{fill:#B2B5B6;} .st3{fill:none;stroke:#231F20;stroke-width:7;stroke-linecap:round;stroke-miterlimit:10;}</style><path class="st0" d="M11.6 208.5l82.6 13.6 11.6 1.9 82.6-15.5 4.2 4.3v119.4l-10.1 5.8-82.5 17.8-92.6-18.6-4.3-7 1.9-117.4z"/><path class="st1" d="M88.2 359l.8.2c.9.2 1.8.3 2.7.3-1.5-.2-2.7-.3-3.5-.5zm20.2.5c.9 0 1.8-.1 2.7-.3l2.3-.4c-1.7.3-3.4.5-5 .7z"/><path class="st2" d="M5 212.8l6.6-8.2 82.6 17.5 5.8 3.4v130.3l-92.6-18.6z"/><path class="st1" d="M199.2 211.2c-2-6.1-8.2-10-14.8-10-1 0-2.1.1-3.1.3l-72.6 13.5c-3.2 0-6.2 1.7-8.6 4.3-2.4-2.6-5.4-4.3-8.6-4.3l-72.6-13.5c-1-.2-2.1-.3-3.1-.3-6.7 0-12.9 3.9-14.8 10-.7 1.6-1 3.4-1 5.2v113.2c0 8.3 5.9 15.1 13.4 15.7.7 0 1.3.1 2 .2l71.2 13.3h.3c.2 0 .5.1.9.2.1 0 .2 0 .3.1.8.1 2 .3 3.4.5 4 .4 10 .7 16.7 0 1.6-.2 3.3-.4 5-.7l71.2-13.3c.7-.1 1.3-.2 2-.2 7.5-.5 13.4-7.4 13.4-15.7v-113.3c.2-1.8-.1-3.6-.6-5.2zm-108.1 136.6l-73.5-13.7c-1.3-.2-2.4-.3-3.2-.4-1.3-.1-2.7-1.8-2.7-4.1v-113.2c0-.6.1-1.1.2-1.6.3-.9 1.8-1.9 3.8-1.9.3 0 .7 0 1 .1l72.6 13.5 1.1.2h.5c1.2.9 3.3 4.3 3.3 7.5v111.9c0 1.4-.4 1.5-1 1.8-.1 0-.4.1-.9.1-.4-.1-.8-.2-1.2-.2zm97.3-18.2c0 2.3-1.4 4-2.7 4.1-.8.1-2 .1-3.2.4l-73.6 13.7c-.4.1-.8.1-1.2.1-.5 0-.8-.1-.9-.1-.7-.2-1-.3-1-1.8v-111.9c0-3.1 2.1-6.6 3.3-7.5h.5l1.1-.2 72.6-13.5c.3-.1.7-.1 1-.1 1.9 0 3.5 1 3.8 1.9.2.5.2 1.1.2 1.6l.1 113.3z"/><path class="st3" d="M27.8 234.1l49.3 8.9m-49.3 18.9l49.3 8.9m-49.3 17.8l49.3 8.9m-49.3 18.8l49.3 8.9m95-91.1l-49.4 8.9m49.4 18.9l-49.4 8.9m49.4 17.8l-49.4 8.9m49.4 18.8l-49.4 8.9"/></svg>