<?xml version="1.0" encoding="utf-8"?>
<!-- Generator: Adobe Illustrator 19.1.0, SVG Export Plug-In . SVG Version: 6.00 Build 0)  -->
<svg version="1.1" id="Layer_1" xmlns="http://www.w3.org/2000/svg" xmlns:xlink="http://www.w3.org/1999/xlink" x="0px" y="0px"
	 viewBox="82.8 21.8 55.7 100" style="enable-background:new 82.8 21.8 55.7 100;" xml:space="preserve">
<style type="text/css">
	.st0{fill:#B2B3B8;}
	.st1{fill:#202020;}
	.st2{fill:#171717;}
	.st3{fill:#7B7D83;}
	.st4{fill:#767676;}
</style>
<path class="st0" d="M134.4,22c0,0,2.8-1,3.6,1.2c0,0,0.5,1.1,0.6,3.3l-0.7,87.7c0,0,0.2,5.4-1.4,6.2c0,0-1.4,1-2.7,0.8L91.9,121
	c0,0-2.3-0.2-2.5-2.8l0.2-18.9L90,41.5c0,0-0.2-3.3,1.4-4.5c0,0,0.9-0.7,2.4-1.1L134.4,22L134.4,22z"/>
<path class="st1" d="M133.8,22.2c0.9-0.3,2.1-0.3,2.9,0.3c1,0.7,0.9,2.4,0.9,3.5l-0.8,91.4c0,0,0,2-1.3,2.8c0,0-0.2,0.5-2.7,0.8
	L96.5,121l-4.7,0c0,0-2.7-0.1-2.5-3.9L90,41.5c0,0-0.6-4.1,2.7-5.2C92.7,36.2,133.7,22.2,133.8,22.2L133.8,22.2z"/>
<ellipse class="st2" cx="111.5" cy="33.8" rx="0.5" ry="0.7"/>
<path class="st3" d="M109.7,119.2c-0.9,0-1.5-0.9-1.5-1.9s0.7-1.9,1.5-1.9c0.9,0,1.5,0.9,1.5,1.9S110.5,119.2,109.7,119.2z
	 M109.7,115.5c-0.8,0-1.4,0.8-1.4,1.8s0.6,1.8,1.4,1.8c0.8,0,1.4-0.8,1.4-1.8S110.4,115.5,109.7,115.5z"/>
<path class="st2" d="M92.4,43.2l43.4-12.4l-1.8,81.7H98.2l-6.5-52.1v-17L92.4,43.2z"/>
<path class="st0" d="M106.6,58.1v58.1c0,0,0.1,4-2.4,5.1c0,0-0.9,0.4-3.5,0.5H86.8c0,0-2.4,0.2-3.3-1.9c0,0-0.8-0.8-0.7-3.8V62.9
	c0,0-0.1-3,1.4-4.2c0,0,0.8-0.7,2.2-1.1l14.7-4c0,0,2.6-0.9,4.1,0.5C105.2,54.1,106.6,54.9,106.6,58.1L106.6,58.1z"/>
<path class="st1" d="M100.5,53.8c0,0,3.2-0.6,4,1.2c0,0,0.4,0.5,0.5,3.2v58.9c0,0,0,2.8-2.2,3.9c0,0-0.9,0.2-2.9,0.2H85.6
	c0,0-2.1,0.1-2.7-2.7V63.3c0,0-0.4-3.2,1.8-5c0,0,0.6-0.5,2.4-0.9L100.5,53.8L100.5,53.8z"/>
<path class="st2" d="M91.3,60.4c-0.1,0-0.2-0.1-0.3-0.2c0-0.1,0-0.3,0.2-0.4l5.6-1.7c0.1,0,0.3,0,0.4,0.2s0,0.3-0.2,0.4L91.3,60.4
	C91.4,60.4,91.4,60.4,91.3,60.4L91.3,60.4z"/>
<ellipse class="st2" cx="89.9" cy="60.5" rx="0.3" ry="0.4"/>
<path class="st4" d="M106,65.3c-0.1,0-0.3-0.1-0.3-0.3v-3.4c0-0.1,0.1-0.3,0.3-0.3s0.3,0.1,0.3,0.3V65
	C106.2,65.1,106.1,65.3,106,65.3z"/>
<path class="st3" d="M93.1,119.9c-1.1,0-2-1.1-2-2.5c0-1.4,0.9-2.5,2-2.5c1.1,0,2,1.1,2,2.5C95.1,118.8,94.2,119.9,93.1,119.9z
	 M93.1,115c-1,0-1.9,1.1-1.9,2.4c0,1.3,0.9,2.4,1.9,2.4s1.9-1.1,1.9-2.4C95,116.1,94.2,115,93.1,115z"/>
<path class="st2" d="M83.3,65.8l20.5-4.7v52.4L83.5,114L83.3,65.8z"/>
</svg>
