<svg xmlns="http://www.w3.org/2000/svg" viewBox="82.8 21.8 55.7 100" enable-background="new 82.8 21.8 55.7 100"><style type="text/css">.st0{fill:#B2B3B8;} .st1{fill:#202020;} .st2{fill:#171717;} .st3{fill:#7B7D83;} .st4{fill:#767676;}</style><path class="st0" d="M134.4 22s2.8-1 3.6 1.2c0 0 .5 1.1.6 3.3l-.7 87.7s.2 5.4-1.4 6.2c0 0-1.4 1-2.7.8l-41.9-.2s-2.3-.2-2.5-2.8l.2-18.9.4-57.8s-.2-3.3 1.4-4.5c0 0 .9-.7 2.4-1.1l40.6-13.9z"/><path class="st1" d="M133.8 22.2c.9-.3 2.1-.3 2.9.3 1 .7.9 2.4.9 3.5l-.8 91.4s0 2-1.3 2.8c0 0-.2.5-2.7.8h-41s-2.7-.1-2.5-3.9l.7-75.6s-.6-4.1 2.7-5.2c0-.1 41-14.1 41.1-14.1z"/><ellipse class="st2" cx="111.5" cy="33.8" rx=".5" ry=".7"/><path class="st3" d="M109.7 119.2c-.9 0-1.5-.9-1.5-1.9s.7-1.9 1.5-1.9c.9 0 1.5.9 1.5 1.9s-.7 1.9-1.5 1.9zm0-3.7c-.8 0-1.4.8-1.4 1.8s.6 1.8 1.4 1.8c.8 0 1.4-.8 1.4-1.8s-.7-1.8-1.4-1.8z"/><path class="st2" d="M92.4 43.2l43.4-12.4-1.8 81.7h-35.8l-6.5-52.1v-17l.7-.2z"/><path class="st0" d="M106.6 58.1v58.1s.1 4-2.4 5.1c0 0-.9.4-3.5.5h-13.9s-2.4.2-3.3-1.9c0 0-.8-.8-.7-3.8v-53.2s-.1-3 1.4-4.2c0 0 .8-.7 2.2-1.1l14.7-4s2.6-.9 4.1.5c0 0 1.4.8 1.4 4z"/><path class="st1" d="M100.5 53.8s3.2-.6 4 1.2c0 0 .4.5.5 3.2v58.9s0 2.8-2.2 3.9c0 0-.9.2-2.9.2h-14.3s-2.1.1-2.7-2.7v-55.2s-.4-3.2 1.8-5c0 0 .6-.5 2.4-.9l13.4-3.6z"/><path class="st2" d="M91.3 60.4c-.1 0-.2-.1-.3-.2 0-.1 0-.3.2-.4l5.6-1.7c.1 0 .3 0 .4.2s0 .3-.2.4l-5.7 1.7z"/><ellipse class="st2" cx="89.9" cy="60.5" rx=".3" ry=".4"/><path class="st4" d="M106 65.3c-.1 0-.3-.1-.3-.3v-3.4c0-.1.1-.3.3-.3s.3.1.3.3v3.4c-.1.1-.2.3-.3.3z"/><path class="st3" d="M93.1 119.9c-1.1 0-2-1.1-2-2.5s.9-2.5 2-2.5 2 1.1 2 2.5-.9 2.5-2 2.5zm0-4.9c-1 0-1.9 1.1-1.9 2.4 0 1.3.9 2.4 1.9 2.4s1.9-1.1 1.9-2.4c0-1.3-.8-2.4-1.9-2.4z"/><path class="st2" d="M83.3 65.8l20.5-4.7v52.4l-20.3.5-.2-48.2z"/></svg>