<svg xmlns="http://www.w3.org/2000/svg" viewBox="0 212.5 200 136.5" enable-background="new 0 212.5 200 136.5"><style type="text/css">.st0{fill:#EFF0EF;} .st1{fill:#B2B5B6;} .st2{fill:#F9F9F9;} .st3{fill:#231F20;}</style><path class="st0" d="M4.1 316.6l-.1.1v-.2l.1.1z"/><path class="st1" d="M155.8 220.2l-3.4 2.2-143.7 91.3-.1-.2c-.5-.9-.7-1.9-.7-3v-83.2c0-3.8 3.1-6.9 6.9-6.9h132.8c1.8 0 3.4.7 4.6 1.8l3.4-2.2c.2.1.2.2.2.2z"/><path class="st2" d="M155.8 220.2l-3.4 2.2c1.3 1.3 2.1 3 2.1 5v83.1c0 3.8-3.1 6.9-6.9 6.9h-132.8c-2.7 0-5-1.5-6.1-3.7l-.1-.2 143.7-91.3 3.4-2.2.1-.1v.3z"/><path class="st3" d="M155.7 220l-3.4 2.2.1.1 3.4-2.2v-.2l-.1.1zm-151.7 96.5v.2l.1-.1-.1-.1zm143.7-104h-132.9c-8.2 0-14.8 6.6-14.8 14.8v83.2c0 8.2 6.6 14.8 14.8 14.8h62.5v15.7h-15.3c-2.2 0-4 1.8-4 4s1.8 4 4 4h38.5c2.2 0 4-1.8 4-4s-1.8-4-4-4h-15.3v-15.8h62.5c8.2 0 14.8-6.6 14.8-14.8v-83.2c0-8.1-6.7-14.7-14.8-14.7zm-143.7 104.2v-.2l.1.1-.1.1zm148.4-94.3c1.3 1.3 2.1 3 2.1 5v83.1c0 3.8-3.1 6.9-6.9 6.9h-132.8c-2.7 0-5-1.5-6.1-3.7l-.1-.2c-.5-.9-.7-1.9-.7-3v-83.2c0-3.8 3.1-6.9 6.9-6.9h132.8c1.8 0 3.4.7 4.6 1.8l.2.2z"/><path class="st2" d="M142.3 254.1h52.9v89.9h-52.9z"/><path class="st1" d="M141.6 258.5l.8 81.4 49.9-83.6c-.1.1-46.3-7.6-50.7 2.2z"/><path class="st3" d="M187 348.9h-38.3c-7.2 0-13-5.8-13-13v-74.3c0-7.2 5.8-13 13-13h38.3c7.2 0 13 5.8 13 13v74.4c0 7.1-5.8 12.9-13 12.9zm-38.4-93.3c-3.3 0-5.9 2.7-5.9 5.9v74.4c0 3.3 2.7 5.9 5.9 5.9h38.4c3.3 0 5.9-2.7 5.9-5.9v-74.3c0-3.3-2.7-5.9-5.9-5.9l-38.4-.1z"/><circle class="st3" cx="167.8" cy="334.8" r="3.2"/><circle class="st3" cx="167.8" cy="261" r="1.7"/><path class="st2" d="M112.2 285.9h34.3v58.6h-34.3z"/><path class="st1" d="M111.7 288.8l.5 53.3 32.7-54.7c0-.2-30.3-5.2-33.2 1.4z"/><path class="st3" d="M138.2 349h-18.6c-7.1 0-12.8-5.8-12.8-12.8v-42.2c0-7.1 5.8-12.8 12.8-12.8h18.6c7.1 0 12.8 5.8 12.8 12.8v42.1c0 7.1-5.7 12.9-12.8 12.9zm-18.6-61.1c-3.4 0-6.1 2.7-6.1 6.1v42.1c0 3.4 2.7 6.1 6.1 6.1h18.6c3.4 0 6.1-2.7 6.1-6.1v-42.1c0-3.4-2.7-6.1-6.1-6.1h-18.6z"/><circle class="st3" cx="128.9" cy="336.2" r="3.2"/><path class="st3" d="M132 294.2h-6.9c-.9 0-1.6-.7-1.6-1.6s.7-1.6 1.6-1.6h6.9c.9 0 1.6.7 1.6 1.6 0 1-.7 1.6-1.6 1.6z"/></svg>