<svg xmlns="http://www.w3.org/2000/svg" viewBox="-0.1 183.3 200.1 195" enable-background="new -0.1 183.3 200.1 195"><style type="text/css">.st0{fill:#FAFAFA;} .st1{fill:#B2B5B6;} .st2{fill:none;stroke:#231F20;stroke-width:8;stroke-linecap:round;stroke-miterlimit:10;} .st3{fill:#4F4C4D;} .st4{fill:#231F20;} .st5{fill:#FFFFFF;} .st6{fill:#DFE1DF;}</style><g id="Layer_1"><path class="st0" d="M190.8 188.3l-119.1 119.2v66.9l119.1-.3 4.9-7.7v-168.8z"/><path class="st1" d="M69.2 310.9v-114l5.3-7.3 9.4-5.4 106.9 4.1z"/><path class="st2" d="M92 357h80.6"/><path class="st3" d="M165 342h-65.5c-4.2 0-7.5-3.4-7.5-7.5v-107c0-4.2 3.4-7.5 7.5-7.5h65.5c4.2 0 7.5 3.4 7.5 7.5v106.9c.1 4.2-3.3 7.6-7.5 7.6z"/></g><g id="Layer_2"><path class="st4" d="M188.1 193.3c1.1 0 2 .9 2 2v171c0 1.1-.9 2-2 2h-111.1c-1.1 0-2-.9-2-2v-171c0-1.1.9-2 2-2h111.1m0-10h-111.1c-6.6 0-12 5.4-12 12v171c0 6.6 5.4 12 12 12h111.1c6.6 0 12-5.4 12-12v-171c0-6.6-5.4-12-12-12z"/><path class="st0" d="M5 324.6l90.8-74.5 3 114.1-3.9 9.9h-87.3l-2.6-7z"/><path class="st1" d="M95.8 250.1l-68.8 60.8-22 19.3v-74c1.2-1.7 3.8-3.1 7.4-4.1 4.7-1.4 11.2-2.2 18.4-2.8 1.3-.1 2.5-.2 3.9-.2l3.6-.2 2.2-.1c25.6-.9 55.3 1.3 55.3 1.3z"/><path class="st4" d="M88.5 378.3h-74.9c-1.8 0-3.5-.3-5.1-1-1.3-.5-2.5-1.2-3.7-2.2-3.2-2.6-5-6.4-5-10.5v-88.9c0-1.3.7-2.4 1.8-3v-4.5c-1.1-.6-1.8-1.7-1.8-3v-8.2c0-7.5 6.2-13.6 13.8-13.6h74.9c7.6 0 13.8 6.1 13.8 13.6v107.6c0 3.6-1.4 7-3.9 9.5-1.3 1.4-3 2.4-4.7 3.1-1.7.7-3.5 1.1-5.2 1.1zm-81.8-99.6v85.9c0 2 .9 3.9 2.5 5.2.6.5 1.2.8 1.8 1.1.8.3 1.7.5 2.6.5h74.9c.9 0 1.7-.2 2.5-.5.9-.4 1.7-.9 2.4-1.6 1.3-1.3 2-3 2-4.8v-107.4c0-3.8-3.1-6.8-6.9-6.8h-74.9c-3.8 0-6.9 3.1-6.9 6.8v2c1.1.6 1.8 1.7 1.8 3v13.7c0 1.2-.7 2.3-1.8 2.9z"/><path class="st5" d="M38.8 243.4l-.3 3.5-.2 2-2.3 23.5-.1.5-.4 3.9-30.5 3-1.8.2v-4.1h1.8v-13.9l-1.8 3.3v7.3l-1.5.1-2 .2v-.7 8.1l-1.8.2v-37h40.9z"/><path class="st6" d="M3 265.8l.3-.5v7.2l-1.5.2.1-.6zm33 7l-.1.1-5 2.8h-25.9v-13.7l4.8-8.7 2.7-1.2v-.1l7.6-3.4h14.6v.4l1.3 23.4z"/><path class="st4" d="M3.3 272.5l-1.5.1-2 .2v-.7h3.5v.4zm37.2-29.1v27.4c0 7.1-6.8 9.8-11.3 9.8h-25.9v-4.9h1.7v-3.6h24c1.9-.1 1.9-.9 1.9-1.3v-27.4h9.6zm-35.5 18.6v13.7h-1.7v4.9h-3.5v-8.5.7l2-.2 1.5-.1v-7.3l1.7-3.2zm25.9-18.6v7.4c-8.3 0-14.5 2.2-18.5 6.5-5.5 5.9-5.2 13.9-5.1 14.9v.1l-2.3.1v-10.4l-1.8 3.3v7.3l-1.5.1-2 .2v-.7c-.1-2.2 0-8.6 3.5-14.9.9-1.7 2.1-3.4 3.6-5 2-2.2 4.4-3.9 7.1-5.3 4.7-2.5 10.4-3.6 17-3.6zm49.6 71.9h-60.4c-1.9 0-3.4-1.5-3.4-3.4s1.5-3.4 3.4-3.4h60.3c1.9 0 3.4 1.5 3.4 3.4.1 1.9-1.4 3.4-3.3 3.4zm0 19.4h-60.4c-1.9 0-3.4-1.5-3.4-3.4s1.5-3.4 3.4-3.4h60.3c1.9 0 3.4 1.5 3.4 3.4.1 1.8-1.4 3.4-3.3 3.4zm0 19.2h-60.4c-1.9 0-3.4-1.5-3.4-3.4s1.5-3.4 3.4-3.4h60.3c1.9 0 3.4 1.5 3.4 3.4.1 1.8-1.4 3.4-3.3 3.4z"/><path class="st2" d="M92 206h80.6"/></g></svg>