<svg xmlns="http://www.w3.org/2000/svg" viewBox="-344 238.1 270.1 85.9" enable-background="new -344 238.1 270.1 85.9"><style type="text/css">.st0{fill:#8C704C;} .st1{fill:#9D8567;} .st2{fill:#BAA994;}</style><path d="M-312.7 238.3v2h-29v24.2h29v2h-29v24.6h29v2h-31.3v-54.8h31.3zM-251.6 289.4l26.3-51.2h3.6v54.8h-2.3v-52.6h-.30000000000000004.1l-26.8 52.6h-1.3l-26.9-52.6h-.2v52.5h-2.3v-54.7h3.7l26.4 51.2zM-187.2 293h-2.3v-54.8h2.3v54.8zM-152.9 291h24.2v2h-26.5v-54.8h2.3v52.8zM-94.1 271.6l17.6-33.4h2.6l-19 35.9v18.9h-2.3v-18.9l-19.1-35.9h2.5l17.7 33.4z"/><path class="st0" d="M-83.9 307.8c-.1-.7-.3-2.1-2-2.1-1 0-1.9.7-1.9 1.7 0 1.3.6 1.6 4.5 3.3 4.1 1.8 5.1 3.7 5.1 6.2 0 3.2-1.8 6.7-7.6 6.7-6.3 0-7.9-4.1-7.9-6.9v-.7h5.5c0 2.5 1.6 3 2.3 3 1.3 0 2.1-1.1 2.1-2.1 0-1.4-.9-1.8-4.3-3.2-1.5-.6-5.3-2.2-5.3-6.2 0-4.1 4-6.4 7.6-6.4 2.2 0 4.5.8 5.9 2.5 1.3 1.6 1.4 3.1 1.4 4.3h-5.4z"/><path class="st1" d="M-84 315.9s.8 1.4-.6 2.6c0 0-1.4 1.1-2.8-.2 0 0-.7-.3-.7-2.3h-5.7s.2 2 .4 2.6c0 0 1.2 5 7.1 5.1 0 0 6.7.5 7.9-4.6l-5.6-3.2z"/><path class="st0" d="M-116.3 301h-4.4l-8.8 22h6l1.1-3.4 6.1-18.6z"/><path class="st2" d="M-111.8 320h-16.3l1.8-4.5h14.5z"/><path class="st1" d="M-107.6 323.1h-6.2l-6.9-21.7h4.4z"/><path class="st0" d="M-226.7 301.4h5.3v21.8h-5.3zM-342.9 301.4h5.6v16.9h6.5v4.9h-12v-21.8zM-304.3 301h-4.4l-8.8 22h6l1.1-3.4 6.1-18.6zM-279.3 301.4l4.4 15.3h.1l4.4-15.3h5.7l-7.3 21.8h-5.7l-7.3-21.8h5.7zM-249.2 301.4h5.6v21.8h-5.6v-21.8zM-182.8 307.8c-.1-.7-.3-2.1-2-2.1-1 0-1.9.7-1.9 1.7 0 1.3.6 1.6 4.5 3.3 4.1 1.8 5.1 3.7 5.1 6.2 0 3.2-1.8 6.7-7.6 6.7-6.3 0-7.9-4.1-7.9-6.9v-.7h5.5c0 2.5 1.6 3 2.3 3 1.3 0 2.1-1.1 2.1-2.1 0-1.4-.9-1.8-4.3-3.2-1.5-.6-5.3-2.2-5.3-6.2 0-4.1 4-6.4 7.6-6.4 2.2 0 4.5.8 5.9 2.5 1.3 1.6 1.4 3.1 1.4 4.3h-5.4z"/><path class="st1" d="M-342.9 301.4h5.6v21.8h-5.6z"/><path class="st2" d="M-299.8 320.1h-16.4l1.8-4.4h14.6z"/><path class="st1" d="M-295.7 323.2h-6.2l-6.8-21.7h4.4zM-277.7 323.2l-7.3-21.8h5.7l6.3 21.8zM-208.3 323.2h-4.9l-.5-21.8h5.4z"/><path class="st2" d="M-213.4 314.3l.2 8.9-13.5-21.8h5.3z"/><path class="st1" d="M-183 315.9s.8 1.4-.6 2.6c0 0-1.4 1.1-2.8-.2 0 0-.7-.3-.7-2.3h-5.7s.2 2 .4 2.6c0 0 1.2 5 7.1 5.1 0 0 6.7.5 7.9-4.6l-5.6-3.2z"/><path class="st0" d="M-160.9 301.4h5.6v9.8h.1v2.6h-.1v9.4h-5.6v-21.8z"/><path class="st1" d="M-155.4 311.2l6.2-9.8h5.8l-7.2 10.9 7.7 10.9h-6.5l-6-9.4h-.1v-2.6z"/><path class="st2" d="M-155.4 313.6l6 9.4h6.7l-7.8-10.9h-4.9"/></svg>