<?xml version="1.0" encoding="utf-8"?>
<!-- Generator: Adobe Illustrator 19.1.0, SVG Export Plug-In . SVG Version: 6.00 Build 0)  -->
<svg version="1.1" id="Layer_1" xmlns="http://www.w3.org/2000/svg" xmlns:xlink="http://www.w3.org/1999/xlink" x="0px" y="0px"
	 viewBox="0 0 270.1 85.9" style="enable-background:new 0 0 270.1 85.9;" xml:space="preserve">
<style type="text/css">
	.st0{fill:#8C704C;}
</style>
<g>
	<path d="M31.3,0v2h-29v24.2h29v2h-29v24.6h29v2H0V0H31.3z"/>
	<path d="M92.4,51.2L118.7,0h3.6v54.8H120V2.2h-0.1h0.1h-0.2L93,54.8h-1.3L64.8,2.2h-0.2v52.5h-2.3V0H66L92.4,51.2z"/>
	<path d="M156.7,54.8h-2.3V0h2.3V54.8z"/>
	<path d="M191,52.8h24.2v2h-26.5V0h2.3V52.8z"/>
	<path d="M249.8,33.4L267.4,0h2.6L251,35.9v18.9h-2.3V35.9L229.6,0h2.5L249.8,33.4z"/>
</g>
<g>
	<path class="st0" d="M0,65.2h5.4v15.7h6.3v4.6H0V65.2z"/>
	<path class="st0" d="M33.3,82.6l-1.1,2.9h-5.8l8.5-20.3h4.3l8.4,20.3h-5.9l-1-2.9H33.3z M34.8,78.4h4.4l-2.2-6.9h0H37L34.8,78.4z"
		/>
	<path class="st0" d="M64.5,65.2l4.3,14.2h0.1l4.3-14.2h5.6l-7.1,20.3H66L59,65.2H64.5z"/>
	<path class="st0" d="M94.7,65.2h5.4v20.3h-5.4V65.2z"/>
	<path class="st0" d="M118.5,65.2h4.7l8.2,12.8l0.1-0.1l-0.2-12.7h5.2v20.3h-4.7l-8.1-12.3l-0.1,0l0.1,12.3h-5.2V65.2z"/>
	<path class="st0" d="M162.1,71.1c-0.1-0.7-0.3-2-1.9-2c-0.9,0-1.9,0.6-1.9,1.6c0,1.2,0.6,1.5,4.4,3.1c4,1.7,5,3.5,5,5.8
		c0,3-1.8,6.2-7.4,6.2c-6.1,0-7.6-3.8-7.6-6.4v-0.7h5.4c0,2.4,1.5,2.8,2.2,2.8c1.3,0,2.1-1,2.1-1.9c0-1.3-0.9-1.7-4.2-3
		c-1.5-0.6-5.2-2-5.2-5.8s3.9-6,7.4-6c2.1,0,4.4,0.7,5.7,2.3c1.3,1.5,1.3,2.9,1.4,4H162.1z"/>
	<path class="st0" d="M183.4,65.2h5.4v9.1h0.1l6-9.1h5.7l-7,10.1l7.5,10.2h-6.3l-5.8-8.8h-0.1v8.8h-5.4V65.2z"/>
	<path class="st0" d="M220.9,82.6l-1.1,2.9H214l8.5-20.3h4.3l8.4,20.3h-5.9l-1-2.9H220.9z M222.4,78.4h4.4l-2.2-6.9h0h-0.1
		L222.4,78.4z"/>
	<path class="st0" d="M258.3,71.1c-0.1-0.7-0.3-2-1.9-2c-0.9,0-1.9,0.6-1.9,1.6c0,1.2,0.6,1.5,4.4,3.1c4,1.7,5,3.5,5,5.8
		c0,3-1.8,6.2-7.4,6.2c-6.1,0-7.6-3.8-7.6-6.4v-0.7h5.4c0,2.4,1.5,2.8,2.2,2.8c1.3,0,2.1-1,2.1-1.9c0-1.3-0.9-1.7-4.2-3
		c-1.5-0.6-5.2-2-5.2-5.8s3.9-6,7.4-6c2.1,0,4.4,0.7,5.7,2.3c1.3,1.5,1.3,2.9,1.4,4H258.3z"/>
</g>
</svg>
