<?xml version="1.0" encoding="utf-8"?>
<!-- Generator: Adobe Illustrator 19.1.0, SVG Export Plug-In . SVG Version: 6.00 Build 0)  -->
<svg version="1.1" id="Layer_1" xmlns="http://www.w3.org/2000/svg" xmlns:xlink="http://www.w3.org/1999/xlink" x="0px" y="0px"
	 viewBox="-344 238.1 270.1 85.9" style="enable-background:new -344 238.1 270.1 85.9;" xml:space="preserve">
<style type="text/css">
	.st0{fill:#8C704C;}
	.st1{fill:#9D8567;}
	.st2{fill:#BAA994;}
</style>
<g>
	<g>
		<path d="M-312.7,238.3v2h-29v24.2h29v2h-29v24.6h29v2H-344v-54.8L-312.7,238.3L-312.7,238.3z"/>
		<path d="M-251.6,289.4l26.3-51.2h3.6V293h-2.3v-52.6h-0.1h0.1h-0.2l-26.8,52.6h-1.3l-26.9-52.6h-0.2v52.5h-2.3v-54.7h3.7
			L-251.6,289.4z"/>
		<path d="M-187.2,293h-2.3v-54.8h2.3V293z"/>
		<path d="M-152.9,291h24.2v2h-26.5v-54.8h2.3V291z"/>
		<path d="M-94.1,271.6l17.6-33.4h2.6l-19,35.9V293h-2.3v-18.9l-19.1-35.9h2.5L-94.1,271.6z"/>
	</g>
	<path class="st0" d="M-83.9,307.8c-0.1-0.7-0.3-2.1-2-2.1c-1,0-1.9,0.7-1.9,1.7c0,1.3,0.6,1.6,4.5,3.3c4.1,1.8,5.1,3.7,5.1,6.2
		c0,3.2-1.8,6.7-7.6,6.7c-6.3,0-7.9-4.1-7.9-6.9V316h5.5c0,2.5,1.6,3,2.3,3c1.3,0,2.1-1.1,2.1-2.1c0-1.4-0.9-1.8-4.3-3.2
		c-1.5-0.6-5.3-2.2-5.3-6.2c0-4.1,4-6.4,7.6-6.4c2.2,0,4.5,0.8,5.9,2.5c1.3,1.6,1.4,3.1,1.4,4.3H-83.9z"/>
	<path class="st1" d="M-84,315.9c0,0,0.8,1.4-0.6,2.6c0,0-1.4,1.1-2.8-0.2c0,0-0.7-0.3-0.7-2.3h-5.7c0,0,0.2,2,0.4,2.6
		c0,0,1.2,5,7.1,5.1c0,0,6.7,0.5,7.9-4.6L-84,315.9z"/>
	<path class="st0" d="M-116.3,301h-4.4l-8.8,22h6l1.1-3.4L-116.3,301z"/>
	<polygon class="st2" points="-111.8,320 -128.1,320 -126.3,315.5 -111.8,315.5 	"/>
	<polygon class="st1" points="-107.6,323.1 -113.8,323.1 -120.7,301.4 -116.3,301.4 	"/>
	<rect x="-226.7" y="301.4" class="st0" width="5.3" height="21.8"/>
	<path class="st0" d="M-342.9,301.4h5.6v16.9h6.5v4.9h-12V301.4z"/>
	<path class="st0" d="M-304.3,301h-4.4l-8.8,22h6l1.1-3.4L-304.3,301z"/>
	<path class="st0" d="M-279.3,301.4l4.4,15.3h0.1l4.4-15.3h5.7l-7.3,21.8h-5.7l-7.3-21.8H-279.3z"/>
	<path class="st0" d="M-249.2,301.4h5.6v21.8h-5.6V301.4z"/>
	<path class="st0" d="M-182.8,307.8c-0.1-0.7-0.3-2.1-2-2.1c-1,0-1.9,0.7-1.9,1.7c0,1.3,0.6,1.6,4.5,3.3c4.1,1.8,5.1,3.7,5.1,6.2
		c0,3.2-1.8,6.7-7.6,6.7c-6.3,0-7.9-4.1-7.9-6.9V316h5.5c0,2.5,1.6,3,2.3,3c1.3,0,2.1-1.1,2.1-2.1c0-1.4-0.9-1.8-4.3-3.2
		c-1.5-0.6-5.3-2.2-5.3-6.2c0-4.1,4-6.4,7.6-6.4c2.2,0,4.5,0.8,5.9,2.5c1.3,1.6,1.4,3.1,1.4,4.3H-182.8z"/>
	<rect x="-342.9" y="301.4" class="st1" width="5.6" height="21.8"/>
	<polygon class="st2" points="-299.8,320.1 -316.2,320.1 -314.4,315.7 -299.8,315.7 	"/>
	<polygon class="st1" points="-295.7,323.2 -301.9,323.2 -308.7,301.5 -304.3,301.5 	"/>
	<polygon class="st1" points="-277.7,323.2 -285,301.4 -279.3,301.4 -273,323.2 	"/>
	<polygon class="st1" points="-208.3,323.2 -213.2,323.2 -213.7,301.4 -208.3,301.4 	"/>
	<polygon class="st2" points="-213.4,314.3 -213.2,323.2 -226.7,301.4 -221.4,301.4 	"/>
	<path class="st1" d="M-183,315.9c0,0,0.8,1.4-0.6,2.6c0,0-1.4,1.1-2.8-0.2c0,0-0.7-0.3-0.7-2.3h-5.7c0,0,0.2,2,0.4,2.6
		c0,0,1.2,5,7.1,5.1c0,0,6.7,0.5,7.9-4.6L-183,315.9z"/>
	<g>
		<path class="st0" d="M-160.9,301.4h5.6v9.8h0.1v2.6h-0.1v9.4h-5.6V301.4z"/>
		<path class="st1" d="M-155.4,311.2L-155.4,311.2l6.2-9.8h5.8l-7.2,10.9l7.7,10.9h-6.5l-6-9.4h-0.1V311.2z"/>
		<polyline class="st2" points="-155.4,313.6 -149.4,323 -142.7,323 -150.5,312.1 -155.4,312.1 		"/>
	</g>
</g>
</svg>
